<?xml version="1.0" encoding="utf-8"?>
<!-- Generator: Adobe Illustrator 28.1.0, SVG Export Plug-In . SVG Version: 6.00 Build 0)  -->
<svg version="1.1" id="Layer_1" xmlns="http://www.w3.org/2000/svg" xmlns:xlink="http://www.w3.org/1999/xlink" x="0px" y="0px"
	 viewBox="0 0 3317.7 2042.7" style="enable-background:new 0 0 3317.7 2042.7;" xml:space="preserve">
<style type="text/css">
	.st0{fill:none;}
</style>
<path d="M1095.7,15.9c0,11.9-8.1,17.9-24.3,17.9c-8.1,0-14.9,0-20.3,0h-32.5c-58.2,0-94,11.4-107.5,34.1
	c-20.3,32.6-50.1,101.4-89.3,206.5L414,1370.4c-2.7,8.5-6.1,18.5-10.2,29.8c0,25.6,27,41.9,81.2,48.9c17.6,0,38.5,0.7,62.9,2.1
	c17.6,1.5,26.4,6.5,26.4,15.2c0,10.1-9.5,15.2-28.4,15.2c-97.4-1.4-237.4-2.1-420-2.1c-63.6,0-100.4-0.7-110.6-2.1
	C5.1,1476,0,1471.7,0,1464.6c0-9.9,18.3-14.9,54.8-14.9c50.1-1.4,83.2-5,99.4-10.6c25.7-9.9,44.6-25.5,56.8-46.8
	c12.2-31.2,26.4-68,42.6-110.6L649.3,240c39.2-103.5,58.9-160.2,58.9-170.1c0-24.1-21-36.1-62.9-36.1h-81.2c-14.9,0-22.3-6-22.3-18
	c0-10.5,7.4-15.8,22.3-15.8h18.3c8.1,0,40.6,0,97.4,0h302.3c8.1,0,14.9,0,20.3,0h75.1C1089.6,0,1095.7,5.3,1095.7,15.9z"/>
<path d="M1817.4,671.6c0,17.5-5.9,32.5-17.7,44.8c-11.8,12.4-25.8,18.6-41.9,18.6c-32.3,0-48.4-15-48.4-44.9
	c0-24.8,10.8-37.1,32.4-37.1c3.2,0,8.3,1.6,15.4,4.7c7,3.2,12.7,4.7,17,4.7c6.5,0,9.7-3.6,9.7-10.7c0-17.3-12.4-34-37.1-50.3
	c-24.7-16.3-50-24.4-75.8-24.4c-34.4,0-63.4,10.5-87.1,31.6c-23.6,21-35.5,46.5-35.5,76.2c0,25.7,25,97,74.9,214.1
	c11.7,27.7,17.5,59,17.5,94c0,69.8-24.7,128.3-74.1,175.6c-49.4,47.2-111.1,70.8-185.2,70.8c-64.4,0-118.4-17.3-161.8-51.7
	s-65.2-76.9-65.2-127.4c0-28.8,8.9-52.5,26.7-71c17.8-18.5,40.2-27.8,67.1-27.8c20.5,0,38,6.7,52.5,20
	c14.5,13.3,21.8,29.2,21.8,47.7c0,30.8-15.7,46.2-47,46.2c-33.5,0-50.2-10.8-50.2-32.5c0-7.2,1.4-14.4,4.1-21.7
	c2.7-7.2,4.1-11.4,4.1-12.4c0-10.3-4.3-15.5-12.9-15.5c-9.6,0-18.5,7-26.5,20.9c-8,13.9-12,29.2-12,45.6
	c0,40.2,17.4,75.3,52.3,105.3c34.9,29.9,76,44.9,123.2,44.9c44,0,80.8-12.9,110.3-38.6c29.5-25.7,44.3-58.1,44.3-97.2
	c0-27.8-11.3-73-33.8-135.8c-21.5-59.7-32.2-109-32.2-148.1c0-66.9,21.2-123.2,63.7-169c42.5-45.8,94.4-68.7,155.7-68.7
	c40.9,0,76.3,11.9,106.5,35.6C1802.3,611.9,1817.4,639.7,1817.4,671.6z"/>
<path d="M1817.4,671.6c0,17.5-5.9,32.5-17.7,44.8c-11.8,12.4-25.8,18.6-41.9,18.6c-32.3,0-48.4-15-48.4-44.9
	c0-24.8,10.8-37.1,32.4-37.1c3.2,0,8.3,1.6,15.4,4.7c7,3.2,12.7,4.7,17,4.7c6.5,0,9.7-3.6,9.7-10.7c0-17.3-12.4-34-37.1-50.3
	c-24.7-16.3-50-24.4-75.8-24.4c-34.4,0-63.4,10.5-87.1,31.6c-23.6,21-35.5,46.5-35.5,76.2c0,25.7,25,97,74.9,214.1
	c11.7,27.7,17.5,59,17.5,94c0,69.8-24.7,128.3-74.1,175.6c-49.4,47.2-111.1,70.8-185.2,70.8c-64.4,0-118.4-17.3-161.8-51.7
	s-65.2-76.9-65.2-127.4c0-28.8,8.9-52.5,26.7-71c17.8-18.5,40.2-27.8,67.1-27.8c20.5,0,38,6.7,52.5,20
	c14.5,13.3,21.8,29.2,21.8,47.7c0,30.8-15.7,46.2-47,46.2c-33.5,0-50.2-10.8-50.2-32.5c0-7.2,1.4-14.4,4.1-21.7
	c2.7-7.2,4.1-11.4,4.1-12.4c0-10.3-4.3-15.5-12.9-15.5c-9.6,0-18.5,7-26.5,20.9c-8,13.9-12,29.2-12,45.6
	c0,40.2,17.4,75.3,52.3,105.3c34.9,29.9,76,44.9,123.2,44.9c44,0,80.8-12.9,110.3-38.6c29.5-25.7,44.3-58.1,44.3-97.2
	c0-27.8-11.3-73-33.8-135.8c-21.5-59.7-32.2-109-32.2-148.1c0-66.9,21.2-123.2,63.7-169c42.5-45.8,94.4-68.7,155.7-68.7
	c40.9,0,76.3,11.9,106.5,35.6C1802.3,611.9,1817.4,639.7,1817.4,671.6z"/>
<g>
	<path d="M1181.2,989.3c8.6-9,18.3-15.7,29-20.4L1322,726c27.9-60.8,41.8-103.6,41.8-128.4c0-36.1-13.4-65.7-40.3-88.9
		c-26.9-23.2-61.8-34.8-104.8-34.8c-74.2,0-151,40.8-230.5,122.4c-16.1,16.8-28.5,29.8-37.1,39.2l59.6-144.7c1.1-2,1.6-4.6,1.6-7.7
		c0-6.2-3.2-9.2-9.7-9.2c-2.2,0-7,1.5-14.5,4.6c-18.3,8.1-56.4,12.2-114.5,12.2c-8.6,0-21-1-37.1-3.1c-16.1-2.1-28-3.1-35.5-3.1
		c-11.8,0-17.7,3.6-17.7,10.7c0,10.2,16.1,15.9,48.4,16.9c25.8,1,39.2,5.1,40.3,12.3c-2.2,4.1-4.8,8.7-8.1,13.8l-246.6,564.3
		l-11.3,23c-3.2,4.1-4.8,7.2-4.8,9.2c0,5.1,3.8,7.7,11.3,7.7c4.3,0,8.1,0,11.3,0c20.4,0,34.9,0,43.5,0c9.7,0,16.1,0,19.4,0
		c21.5,0,33.3,0,35.5,0c8.6,0,15.6-7.7,21-23.1l132.3-292.6c41.9-92.4,88.2-164.2,138.7-215.6c66.7-67.7,124.7-101.6,174.2-101.6
		c37.6,0,56.5,17.5,56.5,52.6c0,23.7-15.6,69.1-46.8,136.2l-129.1,277c-20.5,44.4-30.7,75.3-30.7,92.8c0,21.7,10.8,39.5,32.5,53.4
		c21.7,13.9,49.4,20.9,83,20.9c7.9,0,15.7-0.3,23.4-1c-15.2-24.2-22.8-51.2-22.8-81C1154.5,1031.5,1163.4,1007.8,1181.2,989.3z"/>
</g>
<path d="M2353,574.7c0,55.3-31.2,101.1-93.5,137.4c-62.3,36.3-141.3,54.5-236.9,54.5c-34.4,0-72.5-2.3-114.4-7
	c-39.8,79-59.6,152.4-59.6,220.1c0,91.3,42.4,137,127.2,137c65.5,0,129.3-32.7,191.6-98.2c14-14.3,23.1-21.5,27.4-21.5
	c5.4,0,8,2.6,8,7.7c0,23.6-25.2,52.8-75.7,87.6c-58,40-118.1,59.9-180.3,59.9c-69.8,0-127.2-19.5-172.3-58.5
	c-45.1-39-67.6-88.2-67.6-147.8c0-114.9,65.5-226.3,196.6-334c114.9-94.4,217.5-141.6,307.7-141.6
	C2305.7,470.3,2353,505.1,2353,574.7z M2238.9,548.6c0-31.8-16.7-47.7-50-47.7c-34.4,0-68.3,12.3-101.6,36.9
	c-60.2,45.1-115.5,112.3-166,201.5c12.9,1,27.4,1.5,43.5,1.5c60.2,0,118.7-17.4,175.7-52.3C2206.1,649.6,2238.9,602.9,2238.9,548.6z
	"/>
<path d="M2785.8,669.2c0-33.9-12.4-61.4-37.1-82.5c-24.7-21.1-57-31.6-96.7-31.6c-105.4,0-207.5,46.7-306.4,140.1
	c-120.4,112.9-180.6,223.2-180.6,330.9c0,63.6,21.2,114.7,63.7,153.2c42.4,38.5,98.6,57.7,168.4,57.7c76.3,0,145.1-29.2,206.3-87.6
	c27.9-26.6,41.9-46.1,41.9-58.4c0-6.1-2.7-9.2-8.1-9.2c-6.5,0-15.1,6.2-25.8,18.5c-62.4,70.8-124.3,106.2-185.6,106.2
	c-81.8,0-122.7-43.1-122.7-129.2c0-100.5,38.2-208.7,114.5-324.6c74.2-112.8,151.1-169.2,230.6-169.2c25.8,0,49.2,6.4,70.2,19.1
	c21,12.7,31.4,27.2,31.4,43.4c0,11.2-4.3,16.8-12.8,16.8c-5.3-1-11.7-3.1-19.1-6.2l-12.7-1.5c-28.7,0-43,12.4-43,37.3
	c0,13.5,5.9,25.6,17.7,36.5c11.8,10.9,25.2,16.3,40.2,16.3C2763.8,744.8,2785.8,719.6,2785.8,669.2z"/>
<path d="M3242.3,443.8c-1.1,0-5.4,1-12.9,2.8c-7.5,1.9-14,2.8-19.4,2.8h-61.4h-38.8l35.5-72.7l17.7-36.3c0-4-2.7-6.1-8-6.1
	c-3.2,0-7,0.9-11.3,2.7c-22.6,8.8-39.7,13.3-51.6,13.3c-6.5,0-15.3-0.6-26.6-1.8c-11.3-1.2-19.6-1.8-25-1.8
	c-5.4,0-12.9,11.3-22.6,33.9l-27.4,66.3c-14,1-28.5,1.5-43.5,1.5c-11.8,0-20.4,0.4-25.8,1.1h-14.5c-15,0-22.6,6.4-22.6,19.1
	c0,6.9,9.1,10.3,27.4,10.3h66l-150.8,308.8l0,0l0,0l-60.4,123.7c-24.7,50.3-37.1,84.7-37.1,103.1c0,28.7,12.1,52.3,36.3,70.8
	c14,10.7,30.4,18.3,49.3,22.8l48.4-115.1c1.3-3.1,2.6-6.3,4.1-9.7l0.1-0.3l-0.1,0.3c4.6-10.8,10.1-22.9,16.4-36.4l218.1-468h29.1
	h61.4c45.2-1,67.8-8.6,67.8-22.9C3260.1,447.8,3254.1,443.8,3242.3,443.8z"/>
<path d="M1268.4,1261.7c0,3.1-2.7,9.2-8.1,18.5c-7.5,12.3-19.9,37.5-37.1,75.5L1037.6,1761c-24.8,54.5-37.1,88.4-37.1,101.7
	c0,27.7,15.1,41.6,45.2,41.6c20.5,0,43.9-6.9,70.3-20.8c26.4-13.8,46.6-30.5,60.6-50c9.7-12.3,17.2-18.5,22.6-18.5
	c6.5,0,9.7,3.1,9.7,9.2c0,12.3-15,30.7-45.1,55.3c-45.1,36.8-96.2,55.3-153.1,55.3c-37.6,0-68.5-9.3-92.7-27.7
	c-24.2-18.5-36.3-42.1-36.3-70.9c0-25.7,13.4-67.3,40.3-124.8l167.6-357.4c5.4-17.4,11.8-30.8,19.3-40.1c3.2-4.1,4.8-7.7,4.8-10.8
	c0-9.2-23.7-15.4-70.9-18.5c-8.6-2-12.9-5.6-12.9-10.8c0-9.2,4.3-13.8,12.9-13.8c1.1,0,9.1,1.1,24.2,3.1c15,2.1,39.2,3.1,72.5,3.1
	c45.1,0,76.9-3.6,95.1-10.9c10.7-4.2,18.3-6.2,22.6-6.2C1264.7,1249.4,1268.4,1253.5,1268.4,1261.7z M1219.8,1214.1
	c0,19.7-9.6,29.6-28.7,29.6c-9.8,0-17.9-2.9-24.3-8.8c-6.4-5.9-9.6-13.3-9.6-22.2c0-19.3,11.3-28.9,33.8-28.9
	C1210.2,1183.9,1219.8,1194,1219.8,1214.1z M1981.7,1315.3c0,19.7-9.6,29.6-28.7,29.6c-9.8,0-17.9-2.9-24.3-8.8
	c-6.4-5.9-9.6-13.3-9.6-22.2c0-19.3,11.3-28.9,33.8-28.9C1972.2,1285,1981.7,1295.1,1981.7,1315.3z"/>
<path d="M1827.9,1264.7c0,50.4-22,75.6-65.9,75.6c-15,0-28.4-5.4-40.2-16.3c-11.8-10.9-17.7-23-17.7-36.5c0-24.8,14.3-37.3,43-37.3
	l12.7,1.5c7.4,3.1,13.8,5.1,19.1,6.2c8.5,0,12.8-5.6,12.8-16.8c0-16.3-10.5-30.7-31.4-43.4c-21-12.7-44.4-19.1-70.2-19.1
	c-79.6,0-156.4,56.4-230.6,169.2c-76.3,115.9-114.5,224.1-114.5,324.6c0,86.2,40.9,129.2,122.7,129.2c61.3,0,123.2-35.4,185.6-106.2
	c10.8-12.3,19.4-18.5,25.8-18.5c5.4,0,8.1,3.1,8.1,9.2c0,12.3-14,31.8-41.9,58.4c-61.2,58.4-130,87.6-206.3,87.6
	c-69.8,0-126-19.2-168.4-57.7c-42.4-38.5-63.7-89.5-63.7-153.2c0-107.7,60.2-218.1,180.6-330.9c98.9-93.4,201-140.1,306.4-140.1
	c39.8,0,72,10.6,96.7,31.6C1815.5,1203.2,1827.9,1230.7,1827.9,1264.7z"/>
<path d="M2021.3,1369.6c0,3.1-2.7,9.2-8.1,18.5c-7.5,12.3-19.9,37.5-37.1,75.5l-185.7,405.3c-24.8,54.5-37.1,88.4-37.1,101.7
	c0,27.7,15.1,41.6,45.2,41.6c20.5,0,43.9-6.9,70.3-20.8c26.4-13.8,46.6-30.5,60.6-50c9.7-12.3,17.2-18.5,22.6-18.5
	c6.5,0,9.7,3.1,9.7,9.2c0,12.3-15,30.7-45.1,55.3c-45.1,36.8-96.2,55.3-153.1,55.3c-37.6,0-68.5-9.3-92.7-27.7
	c-24.2-18.5-36.3-42.1-36.3-70.9c0-25.7,13.4-67.3,40.3-124.8l167.6-357.4c5.4-17.4,11.8-30.8,19.3-40.1c3.2-4.1,4.8-7.7,4.8-10.8
	c0-9.2-23.7-15.4-70.9-18.5c-8.6-2-12.9-5.6-12.9-10.8c0-9.2,4.3-13.8,12.9-13.8c1.1,0,9.1,1.1,24.2,3.1c15,2.1,39.2,3.1,72.5,3.1
	c45.1,0,76.9-3.6,95.1-10.9c10.7-4.2,18.3-6.2,22.6-6.2C2017.5,1357.2,2021.3,1361.3,2021.3,1369.6z"/>
<path d="M2937,799.6c-2.1,0-6.4,0.7-12.9,2c-11.8,2.7-38.2,4.1-79,4.1c-6.8,0-15.9,0-27.5,0l-88,175L2600.1,1280l-11.3,23.2
	l-9.7,18.6c-22.6-62.5-68.3-93.8-137-93.8c-98.9,0-202.6,48.8-311.1,146.3c-120.4,107.8-180.6,222.2-180.6,343.4
	c0,58.5,19,106,56.9,142.4c37.9,36.4,86.8,54.7,146.6,54.7c49.1,0,91.9-11.5,128.2-34.6c36.3-23,74.2-61.7,113.8-116
	c0,16.4,0,31.3,0,44.7c0,65.7,40.2,98.6,120.7,98.6c63.3,0,117.5-19.5,162.6-58.5c36.5-31.8,54.7-56.5,54.7-73.9
	c0-8.2-3.8-12.3-11.3-12.3c-4.3,0-12.3,8.7-24.2,26c-36.5,53.9-80.5,80.9-132.1,80.9c-34.4,0-51.6-14.4-51.6-43.1
	c0-15.4,14-55.4,41.9-120.1L2924.2,855c7.5-15.4,13.4-27.2,17.7-35.4c2.1-4.1,3.8-7.7,4.8-10.8
	C2946.7,802.7,2943.5,799.6,2937,799.6z M2526,1449.9l-37.1,90.7c-31.2,77.9-68.3,146-111.3,204.4c-60.2,83-121.5,124.5-183.8,124.5
	c-71,0-106.4-37.4-106.4-112.2c0-83,39.2-184.4,117.7-304.4c82.8-127.1,163.9-190.6,243.5-190.6c27.9,0,53.2,9.2,75.8,27.7
	c22.6,18.4,33.9,39.5,33.9,63C2558.2,1365.3,2547.5,1397.6,2526,1449.9z"/>
<path d="M3317.7,1292.8c0,55.3-31.2,101.1-93.5,137.4c-62.3,36.3-141.3,54.5-236.9,54.5c-34.4,0-72.5-2.3-114.4-7
	c-39.8,79-59.6,152.4-59.6,220.1c0,91.3,42.4,137,127.2,137c65.5,0,129.3-32.7,191.6-98.2c14-14.3,23.1-21.5,27.4-21.5
	c5.4,0,8,2.6,8,7.7c0,23.6-25.2,52.8-75.7,87.6c-58,40-118.1,59.9-180.3,59.9c-69.8,0-127.2-19.5-172.3-58.5
	c-45.1-39-67.6-88.2-67.6-147.8c0-114.9,65.5-226.3,196.6-334c114.9-94.4,217.5-141.6,307.7-141.6
	C3270.4,1188.4,3317.7,1223.2,3317.7,1292.8z M3203.6,1266.7c0-31.8-16.7-47.7-50-47.7c-34.4,0-68.3,12.3-101.6,36.9
	c-60.2,45.1-115.5,112.3-166,201.5c12.9,1,27.4,1.5,43.5,1.5c60.2,0,118.7-17.4,175.7-52.3
	C3170.8,1367.7,3203.6,1321.1,3203.6,1266.7z"/>
<rect x="1389" y="1529.4" class="st0" width="7.7" height="7.9"/>
<path d="M1817.4,671.6c0,17.5-5.9,32.5-17.7,44.8c-11.8,12.4-25.8,18.6-41.9,18.6c-32.3,0-48.4-15-48.4-44.9
	c0-24.8,10.8-37.1,32.4-37.1c3.2,0,8.3,1.6,15.4,4.7c7,3.2,12.7,4.7,17,4.7c6.5,0,9.7-3.6,9.7-10.7c0-17.3-12.4-34-37.1-50.3
	c-24.7-16.3-50-24.4-75.8-24.4c-34.4,0-63.4,10.5-87.1,31.6c-23.6,21-35.5,46.5-35.5,76.2c0,25.7,25,97,74.9,214.1
	c11.7,27.7,17.5,59,17.5,94c0,69.8-24.7,128.3-74.1,175.6c-49.4,47.2-111.1,70.8-185.2,70.8c-64.4,0-118.4-17.3-161.8-51.7
	s-65.2-76.9-65.2-127.4c0-28.8,8.9-52.5,26.7-71c17.8-18.5,40.2-27.8,67.1-27.8c20.5,0,38,6.7,52.5,20
	c14.5,13.3,21.8,29.2,21.8,47.7c0,30.8-15.7,46.2-47,46.2c-33.5,0-50.2-10.8-50.2-32.5c0-7.2,1.4-14.4,4.1-21.7
	c2.7-7.2,4.1-11.4,4.1-12.4c0-10.3-4.3-15.5-12.9-15.5c-9.6,0-18.5,7-26.5,20.9c-8,13.9-12,29.2-12,45.6
	c0,40.2,17.4,75.3,52.3,105.3c34.9,29.9,76,44.9,123.2,44.9c44,0,80.8-12.9,110.3-38.6c29.5-25.7,44.3-58.1,44.3-97.2
	c0-27.8-11.3-73-33.8-135.8c-21.5-59.7-32.2-109-32.2-148.1c0-66.9,21.2-123.2,63.7-169c42.5-45.8,94.4-68.7,155.7-68.7
	c40.9,0,76.3,11.9,106.5,35.6C1802.3,611.9,1817.4,639.7,1817.4,671.6z"/>
</svg>
