<svg width="49" height="48" viewBox="0 0 49 48" fill="none" xmlns="http://www.w3.org/2000/svg">
<path d="M44.4606 0.000277439H3.55304C2.62481 -0.0104198 1.73029 0.347846 1.06607 0.996345C0.401855 1.64484 0.0222722 2.53052 0.0107422 3.45874V44.5376C0.0222749 45.4662 0.40174 46.3522 1.06585 47.0013C1.72996 47.6504 2.62447 48.0094 3.55304 47.9997H44.4606C45.3908 48.0114 46.2876 47.6533 46.9538 47.0041C47.6201 46.3549 48.0014 45.4678 48.0138 44.5376V3.45874C48.0004 2.52922 47.6187 1.643 46.9525 0.994599C46.2864 0.346199 45.3902 -0.0114038 44.4606 0.000277439Z" fill="#0678B6"/>
<path d="M7.12824 17.9959H14.2492V40.9042H7.12824V17.9959ZM10.6887 6.60742C11.5049 6.60742 12.3028 6.84931 12.9816 7.30254C13.6603 7.75576 14.1896 8.39998 14.5024 9.15382C14.8152 9.90767 14.8976 10.7373 14.7392 11.538C14.5808 12.3386 14.1886 13.0744 13.6122 13.6522C13.0359 14.2301 12.3012 14.6242 11.501 14.7848C10.7007 14.9453 9.87087 14.8651 9.1162 14.5543C8.36153 14.2435 7.71591 13.7159 7.2609 13.0384C6.80588 12.3608 6.56188 11.5636 6.55972 10.7474C6.56069 9.65293 6.99614 8.60363 7.77038 7.83007C8.54461 7.05652 9.59428 6.622 10.6887 6.622" fill="white"/>
<path d="M18.7135 17.996H25.543V21.1265H25.6377C26.5889 19.3225 28.9176 17.4238 32.3724 17.4238C39.5845 17.4238 40.9147 22.1615 40.9147 28.3568V40.9224H33.801V29.7635C33.801 27.1068 33.75 23.6884 30.102 23.6884C26.3957 23.6884 25.8272 26.582 25.8272 29.5704V40.9042H18.7135V17.996Z" fill="white"/>
</svg>
