<?xml version="1.0" encoding="utf-8"?>
<!-- Generator: Adobe Illustrator 28.1.0, SVG Export Plug-In . SVG Version: 6.00 Build 0)  -->
<svg version="1.1" id="Layer_1" xmlns="http://www.w3.org/2000/svg" xmlns:xlink="http://www.w3.org/1999/xlink" x="0px" y="0px"
	 viewBox="0 0 512 512" style="enable-background:new 0 0 512 512;" xml:space="preserve">
<style type="text/css">
	.st0{fill:#333333;}
</style>
<g transform="translate(0.000000,512.000000) scale(0.100000,-0.100000)">
	<path class="st0" d="M3735.5,2677.2c-8,29-26,72-41,95c-14,24-384,401-823,839c-909,909-844,854-1011,854c-134,0-181-23-317-158
		c-119-116-159-184-169-282c-7-69,14-167,48-224c11-20,291-307,622-639l601-602l-601-603c-331-331-610-618-622-637
		c-34-58-55-147-49-209c10-110,39-163,154-282c139-144,196-174,328-174c164,0,86-67,1012,858c928,927,872,862,879,1026
		C3749.5,2595.2,3745.5,2643.2,3735.5,2677.2z"/>
</g>
</svg>
