<?xml version="1.0" encoding="utf-8"?>
<!-- Generator: Adobe Illustrator 28.1.0, SVG Export Plug-In . SVG Version: 6.00 Build 0)  -->
<svg version="1.1" id="Layer_1" xmlns="http://www.w3.org/2000/svg" xmlns:xlink="http://www.w3.org/1999/xlink" x="0px" y="0px"
	 viewBox="0 0 338.2 320.5" style="enable-background:new 0 0 338.2 320.5;" xml:space="preserve">
<style type="text/css">
	.st0{fill-rule:evenodd;clip-rule:evenodd;fill:#040404;}
</style>
<path class="st0" d="M109.3,8.2l-8.2,8.2L100.9,37l-0.3,20.5L59.1,58C13.3,58.6,15,58.3,8.2,65.2C6.3,67,3.9,70.5,2.7,73
	c-2,4.3-2.1,6.2-2.4,39.8L0,148l60.3-0.3l60.3-0.3l0.3-9.2l0.3-9.2h9.4h9.4l0.4,13.2c0.4,14.8,1.6,18.4,8,24.4
	c5.1,4.8,9.4,6.5,17.8,7.1c13.5,0.9,23.6-4.4,28.6-15.2c2-4.4,2.3-6.5,2.3-17.3l0-12.3l9.8,0.3l9.8,0.3l-0.3,7.2
	c-0.6,12.7-8.2,11.3,61.5,11.3h60.5l-0.3-35.8c-0.3-39.8-0.1-38.7-7.7-46.6c-7-7.4-5-7.1-51.1-7.7l-41.5-0.5L237.3,37l-0.3-20.5
	l-8.2-8.2L220.6,0h-51.5h-51.5L109.3,8.2 M133.3,45.2l0.3,12.2h35.5h35.5l0.3-12.2l0.3-12.2h-36.1H133L133.3,45.2 M12.3,234.2
	l0.3,62.2l2.4,5.3c3.1,6.9,11.4,14.5,18.4,16.9c5,1.7,11.8,1.8,136.8,1.8h131.5l5.5-2.7c7.2-3.6,12.7-9,15.9-15.8l2.6-5.5l0.3-62.2
	l0.3-62.2h-55h-55v10.3c0,9.3-0.3,10.9-2.8,15.7c-3.1,6-9.1,11.3-15,12.9c-2.1,0.6-14.9,1-29.8,1c-28.7,0-31.9-0.5-38.6-6
	c-2-1.6-4.8-5.3-6.2-8.2c-2.3-4.6-2.6-6.4-2.6-15.5V172H66.6H12L12.3,234.2"/>
</svg>
