<?xml version="1.0" encoding="utf-8"?>
<!-- Generator: Adobe Illustrator 28.1.0, SVG Export Plug-In . SVG Version: 6.00 Build 0)  -->
<svg version="1.1" id="Layer_1" xmlns="http://www.w3.org/2000/svg" xmlns:xlink="http://www.w3.org/1999/xlink" x="0px" y="0px"
	 viewBox="0 0 680.2 680.2" style="enable-background:new 0 0 680.2 680.2;" xml:space="preserve">
<style type="text/css">
	.st0{fill-rule:evenodd;clip-rule:evenodd;fill:#FDCA5F;}
	.st1{fill-rule:evenodd;clip-rule:evenodd;fill:#665338;}
	.st2{fill-rule:evenodd;clip-rule:evenodd;fill:#FDD911;}
	.st3{fill-rule:evenodd;clip-rule:evenodd;fill:#695730;}
</style>
<g>
	<path class="st0" d="M205.6,416.4c-0.3,0.8-3.9,21.5-8,46l-7.4,44.5l43.7,43.8l43.7,43.8l12.4-2.1c6.8-1.2,27-4.6,44.9-7.6
		c17.9-3,33.2-5.6,34-5.8c0.9-0.2,0.3-0.8-1.5-1.5c-3.8-1.5-158.2-155.5-160-159.6C206.5,415.8,205.9,415.3,205.6,416.4"/>
	<path class="st1" d="M463,154.9c-3,0.8-7.4,2.6-9.7,4c-6.2,3.6-244.5,242.6-246,246.7c-1.5,4.1-1.6,7.8-0.3,11.4
		c1.4,3.8,155.5,158.1,159.7,159.9c4.1,1.8,10.6,1.8,14.1,0c3.8-2,242.5-241.3,244.9-245.6c6.2-10.7,6.9-24.4,1.9-35.6
		c-2.5-5.5-8.7-12.1-68.4-71.6c-62.2-62.1-66-65.7-71.5-67.7C479.8,153.6,469.9,153,463,154.9 M189.6,510
		c-2.7,13.2-9.6,57.9-9.6,62.5c0,11.6,7.4,23.5,17.9,28.8c9.4,4.8,12.5,4.7,46.5-1c17.1-2.9,31.4-5.5,31.8-5.9
		c0.4-0.3-18.8-20.1-42.6-44C191.9,508.8,190.1,507.2,189.6,510"/>
	<g>
		<path class="st2" d="M300.6,346.9c3-1.3,7.5-3.3,12.1-5.3c15.7-6.9,28.1-16.7,34.6-27.5c3.8-6.3,6.1-8,11.6-8.7
			c17.5-2.3,42.6-27.8,46.6-47.1c2.6-13,1.5-19.9-4.8-29.5c-5.1-7.8-19.3-16.1-26-15.2c-2.1,0.3-4.1-4.2-7.4-16.5
			c-7-25.7-12.4-37.9-26.4-59c-11.1-16.7-15.4-21.3-32.2-34.1c-30.5-23.3-59.6-31.3-100.2-27.7c-15.2,1.4-25.7,3.4-35.1,6.8
			c-43,15.6-72.8,45.8-87.5,89c-7.8,22.9-10,36.3-10.2,62.7c-0.1,12.8-0.9,17.6-3,17.8c-6.7,0.9-18.3,12.5-21.2,21.3
			c-3.6,10.9-2.9,17.9,2.9,29.8c8.7,17.7,39.5,35.9,57,33.7c5.5-0.7,8.2,0.4,13.4,5.5c9,8.7,23.6,15.1,40.5,17.8
			c3.5,0.5,6.9,1.1,9.8,1.5c21,2,43,1.8,65.6-1.1C261.9,358.3,281.9,353.5,300.6,346.9z M302.4,230.1c-2.6,22.1-34.1,22.7-37,0.7
			c-0.9-7.1-0.2-9.5,4.3-14.3c3-3.2,7.6-6.1,10.2-6.5C292.1,208.3,303.7,218.8,302.4,230.1z M132.5,190.7
			c-0.8-6.4,28-49.2,33.6-49.9c5.6-0.7,11.1,4,20.3,17.6c5.5,8.1,10.7,14.4,11.5,13.9c0.9-0.5,6.3-8.6,12.1-18
			c5.8-9.4,11.9-18.3,13.6-19.7c5.1-4.2,9.7-0.6,20.6,16l10,15.3l6.5-10.6c3.6-5.8,10.3-15.8,14.9-22.2c5.7-8,9.7-11.6,12.5-11.6
			c7.6,0.1,6.7,6.5-2.8,19.5c-5,6.9-12.3,18.1-16.2,25c-12.5,22-16.6,21.6-32.2-3.1l-9.1-14.5l-11.5,19.1
			c-16.9,28.2-21.3,27.8-41.2-3.6l-6.1-9.6l-4.2,5.1c-2.3,2.8-7.5,10.9-11.6,18c-9.6,16.8-11.6,18.8-16.5,17
			C134.5,193.5,132.6,191.9,132.5,190.7z M147,250.1c-2.6-6.7,0.4-16.7,6.2-20.9c7.2-5.2,14.5-5.4,21.9-0.7
			c5.6,3.6,6.9,5.7,7.8,12.8s0.2,9.5-4.3,14.3C168.6,266.7,152.4,263.8,147,250.1z M202.2,311.1c-13.4-9.9-21.3-26.1-16.1-32.8
			c1.1-1.5,4.5-3,7.6-3.4c4.8-0.6,6.3,0.6,11.5,9.1c7,11.6,14.9,16,26.4,14.8c10.7-1.1,17.3-7.4,21.6-20.3
			c3.6-10.8,6.2-13.1,13.7-12.2c16.8,2,3.2,39.7-17.7,49C232.3,322.7,216,321.3,202.2,311.1z"/>
		<path class="st2" d="M279.9,209.9c-2.7,0.3-7.3,3.3-10.2,6.5c-4.5,4.9-5.2,7.3-4.3,14.3c2.8,22,34.4,21.5,37-0.7
			C303.7,218.8,292.1,208.3,279.9,209.9z"/>
		<path class="st2" d="M153.2,177.4c4.1-7.1,9.3-15.2,11.6-18l4.2-5.1l6.1,9.6c19.9,31.4,24.3,31.8,41.2,3.6l11.5-19.1l9.1,14.5
			c15.5,24.7,19.7,25.1,32.2,3.1c3.9-6.9,11.2-18.1,16.2-25c9.5-13,10.4-19.4,2.8-19.5c-2.8,0-6.8,3.6-12.5,11.6
			c-4.6,6.4-11.3,16.4-14.9,22.2l-6.5,10.6l-10-15.3c-10.9-16.6-15.5-20.1-20.6-16c-1.7,1.4-7.9,10.3-13.6,19.7
			c-5.8,9.4-11.2,17.5-12.1,18c-0.9,0.5-6.1-5.8-11.5-13.9c-9.1-13.5-14.6-18.3-20.3-17.6c-5.6,0.7-34.4,43.5-33.6,49.9
			c0.2,1.2,2,2.8,4.2,3.6C141.6,196.2,143.6,194.1,153.2,177.4z"/>
		<path class="st2" d="M182.9,241.4c-0.9-7.1-2.2-9.2-7.8-12.8c-7.4-4.8-14.7-4.6-21.9,0.7c-5.8,4.2-8.8,14.2-6.2,20.9
			c5.4,13.7,21.6,16.5,31.7,5.6C183.1,250.8,183.8,248.4,182.9,241.4z"/>
		<path class="st2" d="M266.9,266.2c-7.5-0.9-10.1,1.4-13.7,12.2c-4.3,12.9-10.9,19.1-21.6,20.3c-11.5,1.2-19.4-3.2-26.4-14.8
			c-5.1-8.5-6.7-9.7-11.5-9.1c-3,0.4-6.4,1.9-7.6,3.4c-5.2,6.7,2.8,23,16.1,32.8c13.7,10.1,30,11.6,46.9,4.1
			C270,306,283.7,268.2,266.9,266.2z"/>
		<path class="st3" d="M256.7,269.4c-0.9,1.5-2,5-2.5,7.8c-1.9,11.8-14.4,22.9-25.6,22.6c-10.3-0.3-16.9-4.4-22.7-14
			c-2.9-4.8-6.3-9.2-7.6-9.8c-3.6-1.8-10.2-0.5-12.5,2.5c-5.6,7.2,3.5,24.3,17.9,33.8c27.8,18.2,64.6,1.4,70.1-31.9
			c1.1-6.8,0.7-8.3-2.8-11.3C266.6,265.1,259.2,265.3,256.7,269.4z"/>
		<path class="st3" d="M175.1,228.6c-7.8-6-16-5.6-22.8,1.4c-13.4,13.6-3,34.1,16,31.6c7.9-1,15.4-12,14.2-20.8
			C181.9,235.4,179.9,232.3,175.1,228.6z"/>
		<path class="st3" d="M288.1,121.4c-3.1,0-6.9,3.9-14.3,14.8c-5.5,8.2-12.2,18.2-14.9,22.2l-4.8,7.3l-11-16.3
			c-14.7-21.7-16.8-21.5-32,3.4c-6.2,10.1-12,18.8-12.9,19.3c-0.9,0.5-6.2-5.8-11.7-13.9c-9.1-13.4-14.6-18.3-20.1-17.6
			c-6.8,0.9-35.1,45.8-32.2,51.1c3.6,6.7,9.9,1.3,21.1-17.9c6.2-10.6,11.8-19.4,12.5-19.5c0.7-0.1,5.4,5.9,10.4,13.3
			c10.7,15.5,16.8,21.1,22.1,20.5c2.4-0.3,8.1-7.5,15.7-20c6.5-10.7,12.5-18.9,13.3-18.2c0.8,0.7,4.1,5.9,7.5,11.5
			c14.6,24.2,20.2,25.4,30.9,6.5c3.9-6.8,11.5-18.5,17-26C295.1,127.9,296.1,121.5,288.1,121.4z"/>
		<path class="st3" d="M292.1,211.9c-8.3-5-16.4-3.4-22.4,4.5c-3.7,4.8-4.8,8.3-4.1,13.7c1.1,8.8,11.2,17.5,19,16.5
			c8.4-1.1,15.5-7.3,17-14.8C303.3,223.2,300.2,216.7,292.1,211.9z"/>
	</g>
</g>
</svg>
