<?xml version="1.0" encoding="utf-8"?>
<!-- Generator: Adobe Illustrator 28.1.0, SVG Export Plug-In . SVG Version: 6.00 Build 0)  -->
<svg version="1.1" id="Layer_1" xmlns="http://www.w3.org/2000/svg" xmlns:xlink="http://www.w3.org/1999/xlink" x="0px" y="0px"
	 viewBox="0 0 225 225" style="enable-background:new 0 0 225 225;" xml:space="preserve">
<style type="text/css">
	.st0{fill-rule:evenodd;clip-rule:evenodd;fill:#FF2E5C;}
	.st1{fill-rule:evenodd;clip-rule:evenodd;fill:#FCF9F9;}
</style>
<path class="st0" d="M90.5,3C54.4,10.6,23.9,35.4,9.7,68.5C3,84.2,1.5,92.2,1.6,113c0,17,0.2,19.3,2.7,28.5
	c10.8,39.8,42.1,70.3,82.3,80.2c9.3,2.3,13.1,2.7,25.4,2.7c19.5,0,33-2.9,49-10.8c12.8-6.3,19.5-11.1,30.1-21.6
	c19.7-19.5,30.5-42.3,32.8-69.5c4.9-58.6-34.7-109.9-92.7-120C119.5,0.4,101.6,0.7,90.5,3 M86.9,58.9L84,61.8v25.6V113H69.5
	c-13.2,0-14.7,0.2-16.5,2c-4.7,4.7-4.1,5.4,28.8,38.3l30.8,30.7l31.2-31.3c17.2-17.2,31.2-32,31.2-32.9c0-0.9-0.9-2.7-1.9-4
	c-1.8-2.2-2.7-2.4-16.8-2.9l-14.8-0.5L141,86.7l-0.5-25.8l-2.8-2.4c-2.8-2.4-3-2.4-25.3-2.4H89.8L86.9,58.9"/>
<path class="st1" d="M0.5,113c0,61.9,0.1,87.2,0.3,56.2c0.1-30.9,0.1-81.6,0-112.5C0.6,25.8,0.5,51.1,0.5,113 M86.9,58.9L84,61.8
	v25.6V113H69.5c-13.2,0-14.7,0.2-16.5,2c-4.7,4.7-4.1,5.4,28.8,38.3l30.8,30.7l31.2-31.3c17.2-17.2,31.2-32,31.2-32.9
	c0-0.9-0.9-2.7-1.9-4c-1.8-2.2-2.7-2.4-16.8-2.9l-14.8-0.5L141,86.7l-0.5-25.8l-2.8-2.4c-2.8-2.4-3-2.4-25.3-2.4H89.8L86.9,58.9"/>
</svg>
