<?xml version="1.0" encoding="utf-8"?>
<!-- Generator: Adobe Illustrator 28.1.0, SVG Export Plug-In . SVG Version: 6.00 Build 0)  -->
<svg version="1.1" id="Layer_1" xmlns="http://www.w3.org/2000/svg" xmlns:xlink="http://www.w3.org/1999/xlink" x="0px" y="0px"
	 viewBox="0 0 465.9 465.9" style="enable-background:new 0 0 465.9 465.9;" xml:space="preserve">
<style type="text/css">
	.st0{fill-rule:evenodd;clip-rule:evenodd;fill:#F3E15D;}
	.st1{fill-rule:evenodd;clip-rule:evenodd;fill:#5C4434;}
	.st2{fill-rule:evenodd;clip-rule:evenodd;fill:#FDD911;}
	.st3{fill-rule:evenodd;clip-rule:evenodd;fill:#695730;}
</style>
<g>
	<path class="st0" d="M154,30.1c-4,2-6.4,5.7-9.4,14.9c-2.1,6.2-2.3,8.9-2.3,23c0,18.5,0.8,21.7,6.6,26.9c4.5,4,8.1,4.6,13.6,1.9
		c4-1.9,5.8-5,10.3-17.7c5.8-16.4,6.6-36.6,1.7-43.8C170.2,29,161,26.6,154,30.1 M86.2,42.3c-8.2,5-10.1,11.1-6.9,22.2
		c4.1,13.8,18.9,35.4,26.8,39c8,3.6,14.5,1.7,18.2-5.3c1.3-2.5,1.4-4,0.5-9.4c-2.9-16.9-10.2-32.5-19.6-42.2c-5.8-6-6.3-6.2-11-6.2
		C91.1,40.4,88.1,41.2,86.2,42.3 M210.8,51c-6.2,2.8-9.7,7.2-15.3,19.9c-3,6.7-6.7,15.6-8.2,19.9c-2.5,7.2-2.7,8.2-1.6,13
		c2.5,11.3,7.6,14.7,16.6,11.3c3.3-1.3,5.8-3.5,10.5-9.4c12-15,19-29.6,19-39.8C231.8,54.5,220.6,46.6,210.8,51 M35.8,86.6
		c-6.3,2.5-10.5,9.8-9.7,16.8c0.5,4.2,1.2,5.2,8.5,12.2c9.2,8.8,21.3,15.3,34.8,19c9.3,2.5,11.9,2.2,16.6-2c2.9-2.6,3.2-3.4,3.2-8.3
		c0-7.3-2.5-11.1-13.7-20.9C60.1,90,44.1,83.2,35.8,86.6 M19.1,142.5c-4.6,1.3-9,5.9-10.3,10.7c-1.3,4.7-0.7,8.3,2.2,13
		c2.5,4.2,13.5,9.5,24,11.7c10.2,2.1,31.8,2.1,35.8,0.1c4.1-2.1,7-6.3,7-10c0-3.7-4.7-11.7-8.3-14c-5.5-3.6-37.1-12.6-43.6-12.5
		C23.9,141.6,20.8,142,19.1,142.5 M194,186.9c0,2.2,0.2,3,0.5,1.7c0.2-1.2,0.2-3,0-4C194.2,183.7,194,184.7,194,186.9"/>
	<path class="st1" d="M297.7,83c-6.1,11.5-14.8,27.6-19.1,35.9c-5.8,11-10.8,17.6-18.3,24.4c-7.4,6.6-12,12.8-16.1,21.2
		c-5.2,10.8-5.7,13.3-5.7,27.9c0,14.4,0.6,17.3,5.5,27.7c10.5,22.3,32.5,38,63.7,45.3c19.3,4.6,60.4,4.6,79.8,0
		c32.8-7.7,58.6-26.3,66.5-47.8c4.8-13,5-33.6,0.5-46.8c-3.6-10.5-11.8-22.2-21.1-29.9c-5.1-4.2-10.3-13.1-24.4-42.1
		c-9.9-20.2-18.6-36.8-19.4-36.8c-1.7,0-6.9,11.9-16,36.8l-6.7,18.2h-18.6h-18.6l-9-27.5c-4.9-15.1-9.6-27.5-10.4-27.5
		C309.5,62.2,303.8,71.5,297.7,83"/>
	<g>
		<path class="st2" d="M193.2,425.7c2.1-0.9,5.2-2.3,8.4-3.7c11-4.8,19.7-11.8,24.2-19.3c2.7-4.4,4.2-5.6,8.1-6.1
			c12.2-1.6,29.8-19.5,32.6-33.1c1.8-9.1,1-14-3.4-20.7c-3.6-5.4-13.5-11.2-18.2-10.6c-1.4,0.2-2.9-2.9-5.2-11.6
			c-4.9-18-8.8-26.5-18.6-41.3c-7.8-11.7-10.8-14.9-22.6-23.9c-21.4-16.3-41.8-21.9-70.2-19.3c-10.6,1-18,2.4-24.5,4.8
			c-30.1,11-50.9,32.2-61.1,62.4c-5.4,16.1-6.9,25.4-7.1,43.9c-0.1,9-0.6,12.3-2.1,12.5c-4.7,0.6-12.8,8.8-14.8,15
			c-2.5,7.6-2,12.5,2.1,20.8c6.1,12.4,27.7,25.1,40,23.5c3.9-0.5,5.7,0.3,9.4,3.8c6.3,6.1,16.5,10.6,28.4,12.4
			c2.5,0.4,4.9,0.8,6.9,1.1c14.7,1.4,30.2,1.2,46-0.9C166.1,433.7,180.1,430.3,193.2,425.7z M194.3,343.8
			c-1.8,15.5-23.9,15.9-25.9,0.5c-0.6-4.9-0.2-6.6,3-10.1c2.1-2.3,5.3-4.3,7.2-4.6C187,328.6,195.2,335.9,194.3,343.8z M75.2,316.5
			c-0.6-4.5,19.5-34.5,23.4-35c3.9-0.5,7.8,2.8,14.2,12.3c3.8,5.7,7.5,10,8.1,9.7c0.6-0.3,4.4-6,8.4-12.6c4-6.6,8.3-12.8,9.5-13.8
			c3.6-2.9,6.8-0.4,14.4,11.2l7,10.7l4.5-7.4c2.5-4.1,7.2-11.1,10.4-15.6c4-5.6,6.8-8.2,8.7-8.1c5.4,0.1,4.7,4.6-1.9,13.7
			c-3.5,4.8-8.6,12.7-11.3,17.5c-8.7,15.4-11.6,15.1-22.5-2.1l-6.4-10.1l-8,13.4c-11.8,19.8-14.9,19.5-28.9-2.5l-4.3-6.7l-2.9,3.5
			c-1.6,2-5.3,7.6-8.1,12.6c-6.7,11.8-8.1,13.2-11.5,11.9C76.6,318.4,75.3,317.3,75.2,316.5z M85.4,358.1
			c-1.8-4.7,0.2-11.7,4.3-14.6c5-3.7,10.2-3.8,15.4-0.5c3.9,2.5,4.8,4,5.5,8.9c0.6,4.9,0.2,6.6-3,10.1
			C100.6,369.6,89.2,367.7,85.4,358.1z M124.2,400.7c-9.4-6.9-15-18.2-11.4-23c0.8-1,3.2-2.1,5.3-2.4c3.3-0.4,4.4,0.4,8,6.3
			c4.9,8.1,10.5,11.2,18.5,10.3c7.5-0.8,12.1-5.2,15.1-14.2c2.5-7.6,4.3-9.2,9.6-8.6c11.8,1.4,2.3,27.8-12.4,34.3
			C145.3,408.8,133.9,407.8,124.2,400.7z"/>
		<path class="st2" d="M178.5,329.7c-1.9,0.2-5.1,2.3-7.2,4.6c-3.1,3.4-3.6,5.1-3,10.1c2,15.4,24.1,15,25.9-0.5
			C195.2,335.9,187,328.6,178.5,329.7z"/>
		<path class="st2" d="M89.7,307.1c2.8-5,6.5-10.7,8.1-12.6l2.9-3.5l4.3,6.7c14,22,17.1,22.2,28.9,2.5l8-13.4l6.4,10.1
			c10.9,17.3,13.8,17.6,22.5,2.1c2.7-4.8,7.8-12.7,11.3-17.5c6.6-9.1,7.3-13.6,1.9-13.7c-2,0-4.7,2.5-8.7,8.1
			c-3.2,4.5-7.9,11.5-10.4,15.6l-4.5,7.4l-7-10.7c-7.6-11.6-10.9-14.1-14.4-11.2c-1.2,1-5.5,7.2-9.5,13.8c-4,6.6-7.8,12.3-8.4,12.6
			c-0.6,0.3-4.3-4-8.1-9.7c-6.4-9.5-10.3-12.8-14.2-12.3c-3.9,0.5-24,30.5-23.4,35c0.1,0.8,1.4,2,2.9,2.5
			C81.6,320.3,83,318.9,89.7,307.1z"/>
		<path class="st2" d="M110.6,351.9c-0.6-4.9-1.6-6.4-5.5-8.9c-5.2-3.3-10.3-3.2-15.4,0.5c-4.1,3-6.2,10-4.3,14.6
			c3.8,9.6,15.2,11.5,22.2,3.9C110.8,358.5,111.3,356.9,110.6,351.9z"/>
		<path class="st2" d="M169.4,369.2c-5.2-0.6-7.1,1-9.6,8.6c-3,9.1-7.6,13.4-15.1,14.2c-8,0.9-13.6-2.2-18.5-10.3
			c-3.6-5.9-4.7-6.8-8-6.3c-2.1,0.3-4.5,1.3-5.3,2.4c-3.6,4.7,2,16.1,11.4,23c9.6,7.1,21,8,32.8,2.8
			C171.7,397,181.2,370.6,169.4,369.2z"/>
		<path class="st3" d="M162.3,371.4c-0.6,1-1.4,3.5-1.7,5.5c-1.3,8.3-10.1,16.1-17.9,15.8c-7.2-0.2-11.9-3.1-15.9-9.8
			c-2-3.3-4.4-6.4-5.3-6.9c-2.5-1.2-7.1-0.3-8.7,1.8c-3.9,5.1,2.5,17,12.6,23.6c19.5,12.7,45.2,0.9,49-22.4c0.8-4.7,0.5-5.8-2-7.9
			C169.3,368.4,164.1,368.6,162.3,371.4z"/>
		<path class="st3" d="M105.1,343c-5.5-4.2-11.2-3.9-16,1c-9.4,9.6-2.1,23.9,11.2,22.1c5.5-0.7,10.7-8.4,9.9-14.6
			C109.8,347.8,108.5,345.5,105.1,343z"/>
		<path class="st3" d="M184.1,267.7c-2.2,0-4.8,2.7-10,10.4c-3.9,5.7-8.5,12.7-10.4,15.6l-3.4,5.1l-7.7-11.4
			c-10.3-15.2-11.8-15-22.4,2.4c-4.3,7.1-8.4,13.2-9,13.5c-0.7,0.3-4.3-4-8.2-9.7c-6.4-9.4-10.3-12.8-14.1-12.3
			c-4.7,0.6-24.5,32.2-22.5,35.9c2.5,4.7,7,0.9,14.8-12.5c4.3-7.4,8.2-13.6,8.7-13.6c0.5-0.1,3.8,4.1,7.3,9.3
			c7.5,10.8,11.8,14.8,15.5,14.3c1.7-0.2,5.6-5.3,11-14c4.6-7.5,8.7-13.3,9.3-12.8c0.5,0.5,2.9,4.1,5.3,8.1
			c10.2,16.9,14.2,17.8,21.7,4.5c2.7-4.8,8-13,11.9-18.2C189,272.3,189.7,267.8,184.1,267.7z"/>
		<path class="st3" d="M187,331.1c-5.8-3.5-11.5-2.3-15.7,3.2c-2.6,3.4-3.3,5.9-2.8,9.6c0.8,6.2,7.8,12.3,13.4,11.5
			c5.9-0.8,10.9-5.1,11.9-10.4C194.9,339,192.7,334.5,187,331.1z"/>
	</g>
</g>
</svg>
