<?xml version="1.0" encoding="utf-8"?>
<!-- Generator: Adobe Illustrator 28.1.0, SVG Export Plug-In . SVG Version: 6.00 Build 0)  -->
<svg version="1.1" id="Layer_1" xmlns="http://www.w3.org/2000/svg" xmlns:xlink="http://www.w3.org/1999/xlink" x="0px" y="0px"
	 viewBox="0 0 2078.3 2076.2" style="enable-background:new 0 0 2078.3 2076.2;" xml:space="preserve">
<g>
	<path d="M1008.7,55.1c16.7,19.9,44,19.9,60.7,0l34.6-41.4
		c16.7-19.9,40.8-17.7,53.7,4.9l26.7,46.9c12.8,22.6,39.7,27.5,59.7,10.8l41.4-34.5c20-16.6,43.4-10.2,52,14.3l17.9,50.9
		c8.6,24.5,34.1,34.1,56.8,21.3l47-26.6c22.6-12.8,44.5-2.3,48.6,23.4l8.5,53.3c4.1,25.7,27.5,39.7,52.1,31.1l51-17.8
		c24.5-8.5,44.1,5.7,43.6,31.7l-1.1,53.9c-0.6,26,20,43.9,45.7,39.9l53.3-8.4c25.7-4,42.4,13.5,37.3,38.9l-10.7,52.9
		c-5.2,25.5,11.8,46.8,37.8,47.4l53.9,1.3c26,0.6,39.3,20.9,29.7,45l-20,50.1c-9.6,24.1,3.3,48.2,28.7,53.4l52.8,10.9
		c25.5,5.3,35,27.5,21.2,49.6L1963,704c-13.8,22-5.4,48,18.7,57.7l50.1,20.2c24.1,9.7,29.5,33.3,12,52.5l-36.4,39.9
		c-17.5,19.2-13.8,46.2,8.1,60.1l45.7,28.8c22,13.8,23,38.1,2.4,53.8l-42.9,32.7c-20.6,15.8-21.9,43-2.7,60.6l39.8,36.5
		c19.2,17.6,15.9,41.6-7.3,53.4l-48.1,24.6c-23.1,11.8-29.2,38.4-13.5,59.1l32.6,43c15.7,20.7,8.2,43.7-16.7,51.2l-51.6,15.6
		c-24.9,7.5-35.6,32.6-23.8,55.8l24.4,48.1c11.8,23.2,0.3,44.5-25.6,47.5l-53.6,6.1c-25.8,3-40.9,25.7-33.4,50.6l15.4,51.7
		c7.4,24.9-7.7,43.9-33.6,42.2l-53.8-3.5c-25.9-1.7-44.8,18-41.9,43.8l6,53.6c2.9,25.8-15.4,41.8-40.6,35.5l-52.3-13.1
		c-25.2-6.3-47.3,9.7-49.1,35.6l-3.7,53.8c-1.8,26-22.6,38.4-46.3,27.7l-49.2-22.2c-23.7-10.7-48.3,1.1-54.6,26.3l-13.2,52.3
		c-6.4,25.2-29.1,33.7-50.5,18.9l-44.4-30.7c-21.4-14.8-47.7-7.5-58.5,16.1l-22.4,49.1c-10.8,23.6-34.6,28-53,9.6l-38.2-38.1
		c-18.4-18.4-45.6-15.9-60.4,5.4l-30.8,44.3c-14.8,21.3-39.1,21.3-53.9,0l-30.8-44.3c-14.8-21.3-42-23.8-60.4-5.4l-38.2,38.1
		c-18.4,18.4-42.3,14-53-9.6l-22.4-49.1c-10.8-23.6-37.1-30.9-58.5-16.1l-44.4,30.7c-21.4,14.8-44.1,6.2-50.5-18.9l-13.2-52.3
		c-6.4-25.2-31-37-54.6-26.3l-49.2,22.2c-23.7,10.7-44.5-1.7-46.3-27.7l-3.7-53.8c-1.8-25.9-23.9-41.9-49.1-35.6l-52.3,13.1
		c-25.2,6.3-43.5-9.6-40.6-35.5l6-53.6c2.9-25.8-16-45.6-41.9-43.8l-53.8,3.5c-25.9,1.7-41.1-17.2-33.6-42.2l15.4-51.7
		c7.5-24.9-7.6-47.7-33.4-50.6l-53.6-6.1c-25.8-2.9-37.3-24.3-25.6-47.5l24.4-48.1c11.8-23.2,1-48.3-23.8-55.8l-51.6-15.6
		c-24.9-7.5-32.4-30.6-16.7-51.2l32.6-43c15.7-20.7,9.6-47.3-13.5-59.1l-48.1-24.6c-23.1-11.8-26.4-35.9-7.2-53.4l39.8-36.5
		c19.1-17.6,17.9-44.8-2.7-60.6L14.7,1017c-20.6-15.8-19.6-40,2.4-53.8l45.6-28.8c22-13.9,25.7-40.9,8.1-60.1l-36.4-39.9
		c-17.5-19.2-12.1-42.9,12-52.5l50.1-20.2c24.1-9.7,32.6-35.6,18.7-57.7l-28.7-45.7c-13.8-22-4.3-44.3,21.2-49.6l52.9-10.9
		c25.4-5.3,38.4-29.3,28.7-53.4l-20-50.1c-9.6-24.1,3.7-44.3,29.7-45l53.9-1.3c26-0.6,43-21.9,37.8-47.4L280,347.7
		c-5.2-25.5,11.6-43,37.2-38.9l53.3,8.4c25.7,4,46.2-13.9,45.7-39.9l-1.1-53.9c-0.6-26,19.1-40.2,43.6-31.7l50.9,17.8
		c24.6,8.5,48-5.5,52.1-31.1l8.5-53.3c4.1-25.6,26-36.2,48.6-23.4l47,26.6c22.6,12.8,48.2,3.2,56.8-21.3l17.9-50.9
		c8.6-24.5,32-31,52-14.3l41.5,34.5c20,16.6,46.8,11.8,59.7-10.8l26.7-46.9c12.9-22.6,37-24.8,53.7-4.9L1008.7,55.1L1008.7,55.1z"/>
</g>
</svg>
