<?xml version="1.0" encoding="utf-8"?>
<!-- Generator: Adobe Illustrator 28.1.0, SVG Export Plug-In . SVG Version: 6.00 Build 0)  -->
<svg version="1.1" id="Layer_1" xmlns="http://www.w3.org/2000/svg" xmlns:xlink="http://www.w3.org/1999/xlink" x="0px" y="0px"
	 viewBox="0 0 99.6 78.6" style="enable-background:new 0 0 99.6 78.6;" xml:space="preserve">
<style type="text/css">
	.st0{fill-rule:evenodd;clip-rule:evenodd;fill:#0B0B0B;}
</style>
<path class="st0" d="M39.5,0.8C17.3,4.8,0,17.9,0,30.8c0,3.9,2.4,9.5,5.7,13.1c7,7.7,18.5,8.5,26.7,1.7c5-4.1,6.9-8.3,6.9-14.8
	c0-6.5-1.8-10.5-6.9-14.9c-2-1.8-3.5-3.4-3.3-3.6c1.5-1.5,13.8-3.5,21.3-3.5c11,0,23.8,3,37.5,9c5.2,2.3,9.8,4.1,10.1,4.1
	c0.4,0,0.8-1.6,1.1-3.6l0.4-3.6l-9.1-4.3C72.9,1.9,53.4-1.7,39.5,0.8 M13.8,20.4C10.3,22.2,8,26.6,8,31.3c0,2.7,0.9,4.5,3.4,7.3
	c3.1,3.4,3.9,3.7,8.5,3.7c4.3,0,5.5-0.5,8.1-3.1c7.7-7.7,2.6-20.5-8.2-20.4C18,18.9,15.3,19.5,13.8,20.4 M71.5,30.7
	c-13.3,6.1-15.4,23.5-4,32.9l3.8,3.1l-5.9,1.8c-4,1.2-9.1,1.8-15.9,1.8c-12.1,0-22.5-2.5-37-9C7,58.8,1.9,56.8,1.2,56.8
	c-0.8,0-1.2,1.5-1.2,3.9v3.9l10.6,4.7c14.2,6.2,23,8.6,34.4,9.3c17.7,1.1,35.5-4.5,46.1-14.4c5.9-5.5,7.9-9.4,7.9-15.7
	c0-6-1.4-9.4-5.8-13.9C87.5,28.7,79.1,27.2,71.5,30.7 M73.3,38.7c-4,2.5-5.3,4.9-5.3,10.1c0,13.2,17.6,16.5,22.7,4.3
	C95,42.7,82.9,32.7,73.3,38.7"/>
</svg>
