<?xml version="1.0" encoding="utf-8"?>
<!-- Generator: Adobe Illustrator 28.1.0, SVG Export Plug-In . SVG Version: 6.00 Build 0)  -->
<svg version="1.1" id="Layer_1" xmlns="http://www.w3.org/2000/svg" xmlns:xlink="http://www.w3.org/1999/xlink" x="0px" y="0px"
	 viewBox="0 0 106 103.7" style="enable-background:new 0 0 106 103.7;" xml:space="preserve">
<style type="text/css">
	.st0{fill-rule:evenodd;clip-rule:evenodd;fill:#0B0B0B;}
</style>
<path class="st0" d="M42.9,2.5c-2,1.3-5,4.6-6.8,7.2C33,14.4,28,28.3,28,32.3c0,3.6-0.8,1.5-2.4-6.2c-0.9-4.1-2.9-10.3-4.6-13.7
	C16.9,4.2,12.6,1,5.3,1H0v5v5h4.1c9.9,0,15.6,14.7,16.2,41.7L20.5,64l6.1,0l6.1,0l0.6-10.7c0.8-13,2.7-22.3,6.2-30.2
	c2.8-6.3,7.6-11.7,9.3-10.6c1.7,1.1,3,7.4,4.1,20.6c0.6,6.9,1.5,15.2,2.1,18.5s1.5,8.9,2.1,12.5c1.3,7.6,0.6,14.6-1.7,19.2
	c-3.6,7.1-7.8,9.8-16.3,10.3l-5.6,0.3l0.3,4.3c0.2,2.4,0.8,4.7,1.5,5.1c0.6,0.4,3.4,0.5,6.2,0.2C54.4,102,62,94.4,65.1,80l1.1-5
	l4,3.5c9.3,8,21.2,8.5,29.5,1.3c8.9-7.8,8.3-20.6-1.2-28.5c-9.3-7.7-21.4-6.7-29.6,2.5l-3.6,4l-1.1-5.8c-0.6-3.2-1.6-12.8-2.1-21.3
	c-1-17.1-1.4-19.5-4.2-24.9C54.7-0.5,49.1-1.8,42.9,2.5 M78.4,56.6C75,58.3,72,62.7,72,66.2c0,5.5,6,9.8,13.5,9.8
	c4,0,5.2-0.5,8.1-3.4c5.6-5.6,4.2-13.1-3.2-16.2C86.1,54.6,82.3,54.7,78.4,56.6"/>
</svg>
