<?xml version="1.0" encoding="utf-8"?>
<!-- Generator: Adobe Illustrator 28.1.0, SVG Export Plug-In . SVG Version: 6.00 Build 0)  -->
<svg version="1.1" id="Layer_1" xmlns="http://www.w3.org/2000/svg" xmlns:xlink="http://www.w3.org/1999/xlink" x="0px" y="0px"
	 viewBox="0 0 84.5 112.2" style="enable-background:new 0 0 84.5 112.2;" xml:space="preserve">
<style type="text/css">
	.st0{fill-rule:evenodd;clip-rule:evenodd;fill:#0B0B0B;}
</style>
<path class="st0" d="M42.9,1.5c-11.1,4-17.5,12.3-18.2,23.7C24.4,30.5,26,40.8,28,45.9c0.5,1.4-0.3,1.6-5.7,1.6
	c-22.4-0.2-30.8,27.6-11.8,39c11.1,6.7,24.1,2.7,30.2-9.2c2.8-5.4,2-14.9-2.2-28.1c-4.3-13.4-4.6-24-1-30.4C42,11.1,51,8.6,59.5,13
	c11.9,6.1,10.9,21.8-3,51.3c-3.3,7-6.7,15.4-7.6,18.7c-5.2,20.3,11.5,35.1,30.4,26.8l5.2-2.3v-5.4c0-3-0.2-5.4-0.4-5.4
	c-0.2,0-2.8,1.1-5.8,2.5c-7.3,3.4-11.9,3.3-16.1-0.4c-3.1-2.8-3.3-3.3-3.2-9.8c0-6.3,0.5-7.9,6.6-20.8c10-21.1,13.4-32.8,12.6-43.1
	C76.8,7.4,59.3-4.3,42.9,1.5 M14.4,59c-9,6.1-5.7,20,5.1,21.4c10.4,1.4,17.7-9.6,12.1-18.2C27.7,56.4,20.4,55,14.4,59"/>
</svg>
