<?xml version="1.0" encoding="utf-8"?>
<!-- Generator: Adobe Illustrator 28.1.0, SVG Export Plug-In . SVG Version: 6.00 Build 0)  -->
<svg version="1.1" id="Layer_1" xmlns="http://www.w3.org/2000/svg" xmlns:xlink="http://www.w3.org/1999/xlink" x="0px" y="0px"
	 viewBox="0 0 100 80.9" style="enable-background:new 0 0 100 80.9;" xml:space="preserve">
<style type="text/css">
	.st0{fill-rule:evenodd;clip-rule:evenodd;fill:#0B0B0B;}
</style>
<path class="st0" d="M36.3,1.7c-5.2,1.8-11.2,5.8-14.6,9.7C14,20,14.4,34.5,22.4,41.9c1.4,1.3,2.6,2.8,2.6,3.2
	c0,0.5-5.6,0.8-12.5,0.8H0v5.5v5.5h19.5H39V50v-6.9l-4-2.8c-2.2-1.5-4.9-4.7-6.1-7.1C20.4,15.8,48.5,1.4,66.1,14.1
	c9.2,6.7,9.8,17.3,1.3,24.7L63,42.7v7.2c0,7,0.1,7.2,2.2,6.6c1.2-0.3,9.6-0.6,18.5-0.6l16.2,0v-5.5v-5.5H88H76l3.4-4.8
	c10-14,5-29.1-12.4-37.1C59.6-0.4,44.2-1.1,36.3,1.7 M30.2,69.7L1,70v5.5v5.5l20.2,0c11.1,0,33.4-0.3,49.5-0.7l29.2-0.7v-5.3v-5.3
	l-20.2,0.2C68.6,69.3,46.3,69.5,30.2,69.7"/>
</svg>
