<?xml version="1.0" encoding="utf-8"?>
<!-- Generator: Adobe Illustrator 28.1.0, SVG Export Plug-In . SVG Version: 6.00 Build 0)  -->
<svg version="1.1" id="Layer_1" xmlns="http://www.w3.org/2000/svg" xmlns:xlink="http://www.w3.org/1999/xlink" x="0px" y="0px"
	 viewBox="0 0 81 97" style="enable-background:new 0 0 81 97;" xml:space="preserve">
<style type="text/css">
	.st0{fill-rule:evenodd;clip-rule:evenodd;fill:#0B0B0B;}
</style>
<path class="st0" d="M3,0.4c0,0.2,1.9,3.3,4.2,6.8C12.7,15.5,19.6,30,21.3,37l1.4,5.5l-11.4,0.3L0,43.1v5v5h11.5
	c6.3,0,11.5,0.3,11.5,0.8c0,0.4-0.9,4.1-2.1,8.2C18.5,70.9,11.6,84.4,6,91c-2.2,2.6-4,5.1-4,5.4S4.5,97,7.5,97c5.4,0,5.6-0.1,9-4.8
	C24,81.9,29.5,70,31.4,60l1.2-6.5l7.7-0.3c5.7-0.2,7.8,0.1,8.1,1c0.2,0.7,0.9,4.2,1.6,7.8c1.4,7.8,7.3,20.2,13.5,28.8L68,97h5.5
	c6.2,0,6.2,0.3,0.1-7.5c-6.4-8.1-13.5-23.3-15.2-32.8L57.8,53h11.6H81v-5v-5H69.5H58l0.7-2.8c2.1-8.7,8.3-22.5,14.8-32.8
	c1.7-2.8,3.5-5.6,3.9-6.2C77.9,0.3,76.8,0,72.8,0h-5.3l-4.2,6.2C56,17,49,34.3,49,41.2c0,1.6-1,1.8-8.3,1.8h-8.3l-1.6-7.4
	c-1.9-8.7-6.8-19.9-12.9-29.1L13.6,0H8.3C5.4,0,3,0.2,3,0.4"/>
</svg>
