<?xml version="1.0" encoding="utf-8"?>
<!-- Generator: Adobe Illustrator 28.1.0, SVG Export Plug-In . SVG Version: 6.00 Build 0)  -->
<svg version="1.1" id="Layer_1" xmlns="http://www.w3.org/2000/svg" xmlns:xlink="http://www.w3.org/1999/xlink" x="0px" y="0px"
	 viewBox="0 0 84.9 107.1" style="enable-background:new 0 0 84.9 107.1;" xml:space="preserve">
<style type="text/css">
	.st0{fill-rule:evenodd;clip-rule:evenodd;fill:#0B0B0B;}
</style>
<path class="st0" d="M0.7,0.8C0.3,1.2,0,2.9,0,4.7C0,7,0.5,8,2,8.4c1.1,0.3,2.4,1.7,3,3.2c0.6,1.6,1,16,1,36.1v33.4h5.4h5.4
	l0.5-26.2c0.4-20.6,0.8-27.4,2.1-31.3c1.7-5.3,6.9-13.4,8.7-13.4c0.6,0,1,12.6,1,35.5v35.5h5.3h5.3l0.7-24.5c0.8-31,2.3-38.1,9-44.4
	l2.5-2.4l0.3,35.4c0.2,19.4-0.1,36.6-0.6,38.2c-1.1,3.5-4.5,4.9-9.8,4l-4-0.6l0.3,4.4c0.3,4.4,0.3,4.4,5,5.3
	c3.9,0.8,5.3,0.6,8.7-1.2l4-2.1l0.7,2.2c1.3,4.1,4.7,7.9,8.8,9.8c6.5,3,7.6,2.6,7.6-2.4c0-3.9-0.3-4.5-3.4-5.9
	c-2.1-1-3.8-2.8-4.4-4.6c-1-2.8-0.8-3.2,2.7-6C79.8,76.8,87.7,52.6,84,37c-4-16.9-13.1-21-20.8-9.3c-1.1,1.7-1.2,1.2-0.7-3.4
	c1-9.2-0.4-17-3.8-20.8C53.6-2.4,47.4-0.8,42,7.8l-2.8,4.4l-0.7-3c-0.4-1.7-1.9-4.4-3.5-6.1c-5.5-5.9-12.6-3.1-18.2,7.4l-1.6,3.1
	l-1.1-4C12.8,5,11.4,2.9,8.3,1.3C5.9,0,1.7-0.3,0.7,0.8 M68.4,34.9c-1,1-2.7,3.8-3.8,6.2c-1.7,3.8-2.1,7-2.4,20.8
	c-0.3,10.6,0,16.2,0.6,16.2c2.3,0,8.9-9.1,11.2-15.6c2-5.5,2.5-8.6,2.4-15.9c-0.1-5-0.6-10-1.3-11.2C73.7,32.7,70.8,32.5,68.4,34.9"
	/>
</svg>
