<svg xmlns="http://www.w3.org/2000/svg" viewBox="0 0 255.7 118" xml:space="preserve"><path d="M225.7 51.1q-3.3 0-5.1-2.3c-1.8-2.3-1.8-3.6-1.8-6.1q0-4.2 2-8.6a29 29 0 0 1 11.6-12.8q3.6-2 6.8-2l1.9.3 1.8-8.9.2-2-.3-.9q-.3-.6-.7-.7l-3.3-.2q-.2 0-.1-1.1.1-1 .4-1.1h2.5q8.6 0 13.8-.7.2 0 .2 1.1c0 1.1-.1 1.1-.3 1.2q-2 0-2.8 1.1a9 9 0 0 0-1.1 3L246 35.8l3.4-3.4q.5.6.5 1.9 0 1-1 2l-3.6 3.4-2.1 11q-1.3.4-4.3.4l-2.2-.2q-1.5-.1-1.9-.4l1-4.8a17 17 0 0 1-4.7 3.6 10 10 0 0 1-5.4 1.8m4.9-5.9q2.8 0 5.8-3l2.4-12.2q.8-4 .3-5.9-.4-1.8-1.9-1.8-1.8 0-3.5 2-1.8 2-3 4.9a38 38 0 0 0-2.8 11.4q-.1 4.6 2.7 4.6m-40.1 6-2.1-.2-1.7-.7q-1.2-1.4-1.1-3.1 0-2.4 1.2-3.7c1.2-1.3 1.8-1.4 2.8-1.4l1.2.2 1.2.6.8.5.4.2.4.2.4.1.7.1q1 0 2.8-2.6 1.8-2.5 3.7-6.9 1.8-4.3 2.8-8.5l1.4-6.4q1.3-.4 3.9-.4 2.4 0 4.1.4l-4.1 21.7-.3 2.3q0 .6.3 1t.8.5q1 0 2.8-1.8t2.2-2.5q.3 0 .7.7l.3 1.2q-1.2 2.2-4.8 5.3c-3.6 3.1-4.4 3.1-6.1 3.1q-2.2 0-3.4-1.3-1.3-1.3-1.3-3.7l.6-4.2.3-1.5.5-2.1.2-.9a26 26 0 0 1-7.3 11.7q-2.4 2.1-4.3 2.1M179 41.4l-.3 2.3q0 .6.3 1t.8.5q1 0 2.8-1.8t2.2-2.5q.3 0 .7.7l.3 1.2q-1.2 2.2-4.8 5.3t-6.1 3.1q-2.1 0-3.4-1.3t-1.3-3.7l.6-4.2 2.6-13.1.3-2.3-.2-1-.7-.5q-1 0-2.8 1.8t-2.2 2.5q-.3 0-.7-.7l-.3-1.2q.7-1.2 2.5-3.2c1.8-2 2.7-2.5 4.4-3.6A9 9 0 0 1 178 19q1.9 0 3.2 1.2t1.3 3.8a19 19 0 0 1-.6 4.2zM171.6 68q-1.8 0-2.9-1.2c-1.1-1.2-1.1-1.9-1.2-3.1q0-2.4 1.6-4.2a5 5 0 0 1 3.8-1.8q1.7 0 2.9 1.3t1.2 3.1q0 2.3-1.6 4.1c-1.6 1.8-2.4 1.8-3.8 1.8M149 51.3q-5 0-7.7-2.2-.8-.9-.8-2.8 0-1.4 1-2.4 1-1.1 2.5-1.1 2 0 4.2 3.2a9 9 0 0 0 2 2.2q.6.4 1.5.4 1.2 0 2-.9t.8-2.3q0-1-.8-2-.7-1.1-1.6-1.9l-2.3-2.1-2.1-1.9-1.4-1.4-1.2-1.5q-.7-1-1.1-2.3l-.3-2.8q0-4.5 3.8-7.3t9.1-2.8a15 15 0 0 1 7.4 2.1q.8 1 .9 2.7 0 1.5-.9 2.6t-2.4 1.2q-1.2 0-2.2-.8-.9-.7-2.1-2.4-1-1.4-1.8-2.1-.8-.6-2-.6t-2.1 1-1 2 .8 2.3a9 9 0 0 0 1.8 2.1 41 41 0 0 1 4.6 4.4l.6.7.7.7.5.7q.5.5.5.8l.4.9.4 1.1.2 1.2.1 1.5q0 4.2-3.4 7a13 13 0 0 1-8.6 2.8m-28.7.1a15 15 0 0 1-3.7-.5q-1.7-.5-2.5-1.1a6 6 0 0 1-1.1-3.5q0-1.6 1.2-3t2.7-1.3q2.3 0 3.6 2.6l.2.4.3.5.3.5.3.5.3.4.4.4.4.3.5.2.5.1q1.3 0 2.5-2.5a30 30 0 0 0 2.9-13.6 9 9 0 0 0-1.1-5q-1-1.5-3.3-1.5l-1 .1-1 .3-.9.5-.9.6-.8.6-.8.7-.6.6-.5.5-.4.4-.1.2q-.4 0-.7-.7l-.3-1.1 1.7-2a28 28 0 0 1 6.9-5.4 9 9 0 0 1 4.1-1.1 8 8 0 0 1 5.9 2.5q2.5 2.5 2.5 7.1a26 26 0 0 1-9.3 19.1 13 13 0 0 1-8.2 3.2M105 41.6l-.3 2.3q0 .6.3 1t.8.5q1 0 2.8-1.8c1.8-1.8 1.9-2 2.2-2.5q.3 0 .7.7l.3 1.2q-1.2 2.2-4.8 5.3t-6.1 3.1q-2.2 0-3.4-1.3c-1.2-1.3-1.3-2.1-1.3-3.7l.6-4.2 2.6-13.1.3-2.3-.2-1-.7-.5q-1 0-2.8 1.8c-1.8 1.8-1.9 2-2.2 2.5q-.3 0-.7-.7l-.3-1.2q.7-1.2 2.5-3.2a23 23 0 0 1 4.4-3.6 9 9 0 0 1 4.3-1.7q1.9 0 3.2 1.2 1.2 1.2 1.3 3.8a19 19 0 0 1-.6 4.2zm-7.5 26.6q-1.8 0-2.9-1.2c-1.1-1.2-1.1-1.9-1.2-3.1q0-2.4 1.6-4.2a5 5 0 0 1 3.8-1.8q1.8 0 2.9 1.3 1.2 1.3 1.2 3.1 0 2.3-1.6 4.1c-1.6 1.8-2.3 1.8-3.8 1.8m-15.6-8.9-.2 1.3-.3 1.5-.1 1q0 1.3 4.3 1.3v1l-.3 1a74 74 0 0 0-12.6 2.5q-.4-.3-.4-1.3 0-.8.9-5.3l6.4-33.1.3-2.3-.2-1q-.3-.5-.7-.5-1 0-2.8 1.8c-1.8 1.8-1.9 2-2.2 2.5q-.3 0-.7-.7-.4-.9-.3-1.2.7-1.2 2.5-3.2a23 23 0 0 1 4.4-3.6 9 9 0 0 1 4.3-1.7q1.9 0 3.2 1.2c1.3 1.2 1.3 2.1 1.3 3.8a19 19 0 0 1-.6 4.2zm-19.9.1-.2 1.3-.3 1.5-.1 1q0 1.3 4.3 1.3v1l-.3 1A74 74 0 0 0 52.8 69q-.4-.3-.4-1.3 0-.8.9-5.3l6.4-33.1.3-2.3-.2-1q-.3-.5-.7-.5-1 0-2.8 1.8c-1.8 1.8-1.9 2-2.2 2.5q-.3 0-.7-.7-.5-.9-.3-1.2.6-1.2 2.5-3.2a23 23 0 0 1 4.4-3.6 9 9 0 0 1 4.3-1.7q1.9 0 3.2 1.2c1.3 1.2 1.3 2.1 1.3 3.8a19 19 0 0 1-.6 4.2zm-33.5-7.8a20 20 0 0 1-4-.4l-3.5-.8 4.3-21 .3-2.3-.2-1q-.3-.5-.7-.5-1 0-2.8 1.8c-1.8 1.8-1.9 2-2.2 2.5q-.3 0-.7-.7-.4-.9-.3-1.2.6-1.2 2.5-3.2a23 23 0 0 1 4.4-3.6 9 9 0 0 1 4.3-1.7q2 0 3.1 1.2c1.1 1.2 1.2 1.9 1.2 3.4l-.1 1.3-.3 1.3q1.4-2.4 4.4-4.8t5.9-2.4c2.9 0 3.4.8 4.5 2.4q1.6 2.5 1.6 6.1 0 4.5-2.1 9a28 28 0 0 1-12.3 12.7 17 17 0 0 1-7.3 1.9m3.9-3.8q2.3 0 4.4-2.5a18 18 0 0 0 3.2-6.5q1.2-3.9 1.2-8.1 0-5-2.5-5-1.8 0-4 4.4a37 37 0 0 0-3.3 9.7L30 46.9q.8.9 2.4.9m-15 16.4-4 20.2-.6 2.8A29 29 0 0 1 20.6 77q2.4-2.1 4.1-2.1 2.8 0 4 1.5c1.2 1.5 1.1 2.5 1.1 4.6q0 1.8-1.4 9.1L27 97.2l-.3 2.3.2 1q.3.5.7.5 1 0 2.8-1.8c1.8-1.8 2-2 2.2-2.5q.3 0 .7.7l.3 1.2q-.6 1.2-2.5 3.2a23 23 0 0 1-4.4 3.6 9 9 0 0 1-4.3 1.7q-1.9 0-3.2-1.2c-1.3-1.2-1.3-2.1-1.3-3.8q0-1.6.6-4.2l1.6-8.4.5-2.8.3-2.6q0-.6-.3-1a1 1 0 0 0-.8-.4q-1 0-2.9 2.4a37 37 0 0 0-6.6 15l-1.4 6.4q-1.3.4-3.9.4-2.4 0-4.1-.4L9 63.4q0-1.3-4.3-1.3v-1l.3-1a74 74 0 0 0 12.6-2.4q.4.3.4 1.3.4.9-.6 5.2m40.4 10.7q1.8 0 4 .4c2.2.4 2.7.6 3.5.8l-4.4 21-.3 2.3.2 1q.3.5.7.5 1 0 2.8-1.8c1.8-1.8 2-2 2.2-2.5q.3 0 .7.7l.3 1.2q-.7 1.2-2.5 3.2a23 23 0 0 1-4.4 3.6 9 9 0 0 1-4.3 1.7q-2 0-3.1-1.2c-1.1-1.2-1.2-1.9-1.2-3.4a8 8 0 0 1 .4-2.6q-1.4 2.4-4.4 4.8t-5.9 2.4c-2.9 0-3.4-.8-4.4-2.4a11 11 0 0 1-1.6-6.2q0-4.5 2.1-8.9a29 29 0 0 1 12.3-12.6q3.9-2 7.3-2m-3.9 3.9q-2.3 0-4.4 2.5c-2.1 2.5-2.4 3.8-3.2 6.5q-1.2 3.9-1.2 8.1 0 5 2.5 5 1.8 0 4-4.4 2.3-4.3 3.3-9.7l1.4-7.1q-.7-.9-2.4-.9m52.3 19.1 1.8-8.4.5-2.8.3-2.6q0-.6-.3-1a1 1 0 0 0-.8-.4q-1 0-2.9 2.4a37 37 0 0 0-6.6 15l-1.4 6.4q-1.4.4-3.9.4-2.4 0-4.1-.4l3.7-17 .5-2.8.3-2.6q0-.6-.3-1a1 1 0 0 0-.8-.4q-1 0-2.9 2.4a37 37 0 0 0-6.6 15l-1.4 6.4q-1.4.4-3.9.4-2.4 0-4.1-.4l4.1-21.7.4-2.3q0-.6-.3-1t-.8-.5q-1 0-2.8 1.8c-1.8 1.8-2 2-2.2 2.5q-.3 0-.7-.7l-.3-1.2q1.2-2.2 4.8-5.3t6.1-3.1q2.2 0 3.4 1.3 1.3 1.3 1.3 3.7l-.6 4.2-.7 3.1a29 29 0 0 1 7.8-10.2q2.4-2.1 4.1-2.1 2.8 0 4 1.5c1.2 1.5 1.1 2.5 1.1 4.6q0 1.6-.5 4.6 2.2-3.9 5.5-7.3t5.6-3.4q2.8 0 4 1.5c1.2 1.5 1.1 2.5 1.1 4.6l-.2 2.3-.4 2.4-.5 2.5-.4 1.8-.7 3.3-.8 3.8-.3 2.3.2 1q.3.5.7.5 1 0 2.8-1.8c1.8-1.8 2-2 2.2-2.5q.3 0 .7.7l.3 1.2q-.7 1.2-2.5 3.2a23 23 0 0 1-4.4 3.6 9 9 0 0 1-4.3 1.7q-1.9 0-3.2-1.2c-1.3-1.2-1.3-2.1-1.3-3.8q0-1.8.6-4.2m24.2-13.1.4-2.3q0-.6-.3-1-.4-.6-.8-.5-1 0-2.8 1.8c-1.8 1.8-2 2-2.2 2.5q-.3 0-.7-.7l-.3-1.2q1.2-2.2 4.8-5.3t6.1-3.1q2.2 0 3.4 1.3c1.2 1.3 1.3 2.1 1.3 3.7l-.6 4.2-2.6 13.1-.3 2.3.2 1q.2.5.7.5 1 0 2.8-1.8c1.8-1.8 2-2 2.2-2.5q.3 0 .7.7.5.9.3 1.2-.7 1.2-2.5 3.2c-1.8 2-2.7 2.5-4.4 3.6s-3.1 1.7-4.3 1.7q-1.9 0-3.2-1.2c-1.3-1.2-1.3-2.1-1.3-3.8q0-1.6.6-4.2zm7.5-26.6q1.8 0 2.9 1.2 1.2 1.3 1.1 3.1 0 2.4-1.7 4.2c-1.7 1.8-2.4 1.8-3.8 1.8q-1.7 0-2.9-1.3c-1.2-1.3-1.2-1.9-1.2-3.1a6 6 0 0 1 1.6-4.1 6 6 0 0 1 4-1.8M153 76.7l1.1-5.6q.6-.8 3.9-2.7c3.3-1.9 3.5-2 3.8-2q.6 0 1.2.4l-1.8 9.8h6.2q.3 0 .3.8 0 1.2-.7 2.4h-6.4l-3.4 17.3-.3 2.3.2 1q.2.5.7.5 1 0 2.8-1.8c1.8-1.8 2-2 2.2-2.5q.3 0 .7.7.4.9.3 1.2-.7 1.2-2.5 3.2c-1.8 2-2.7 2.5-4.4 3.6s-3.1 1.7-4.3 1.7q-1.9 0-3.2-1.2c-1.3-1.2-1.3-2.1-1.3-3.8q0-1.5.6-4.2l3.5-17.9H147l-.1-.2q0-.6 1.1-1.8c1.1-1.2 1.5-1.2 2.2-1.2zm33.6-1.8q1.5 0 2.7.3c1.2.3 1.7.6 2.5 1s1.4 1.1 1.9 2 .7 1.9.7 3.1q0 2.5-2 4.9c-2 2.4-2.9 2.8-4.7 3.8s-3.7 1.8-5.5 2.3-3.3.9-4.5.9l-.1 1.8.2 2.1q.2 1 .6 1.9c.4.9.7 1.1 1.3 1.5s1.3.6 2.1.6l1.1-.1 1.1-.4 1.1-.6 1-.7.9-.7.8-.7.6-.6.4-.5.2-.2q.4 0 .7.8.4 1 .3 1.3l-1.8 2q-1.4 1.3-3.4 2.8a18 18 0 0 1-7.9 3.6q-3.8 0-5.9-2.7c-2.1-2.7-2.2-4.3-2.2-7.6q0-3.7 1.6-7.8c1.6-4.1 2.5-5 4.2-7s3.6-3.7 5.7-5 4.3-2.1 6.3-2.1M178 90.6q1 0 2.4-.9c1.4-.9 1.8-1.4 2.7-2.3s1.6-2.1 2.1-3.3.9-2.6.9-3.8q0-2.7-1.8-2.7-1.2 0-2.3 1.5c-1.1 1.5-1.4 2.2-1.9 3.7s-1 2.9-1.3 4.3-.7 2.5-.8 3.5m43.8-15.7 2.1.2 1.7.7q1.2 1.4 1.1 3.1 0 2.4-1.2 3.7c-1.2 1.3-1.8 1.4-2.8 1.4l-1.2-.2-1.2-.6-.8-.5-.4-.2-.4-.2-.4-.1-.7-.1q-1 0-2.8 2.6c-1.8 2.6-2.4 4-3.7 6.9s-2.2 5.7-2.8 8.5l-1.4 6.4q-1.4.4-3.9.4-2.4 0-4.1-.4l4.1-21.7.4-2.3q0-.6-.3-1-.3-.6-.8-.5-1 0-2.8 1.8c-1.8 1.8-2 2-2.2 2.5q-.3 0-.7-.7-.4-.9-.3-1.2 1.2-2.2 4.8-5.3c3.6-3.1 4.4-3.1 6.1-3.1q2.2 0 3.4 1.3c1.2 1.3 1.3 2.1 1.3 3.7l-.6 4.2-.3 1.5-.5 2.1-.2.9q.8-3.1 2.9-6.4c2.1-3.3 2.8-3.9 4.4-5.3s3-2.1 4.2-2.1"/></svg>
