<?xml version="1.0" encoding="utf-8"?>
<!-- Generator: Adobe Illustrator 28.1.0, SVG Export Plug-In . SVG Version: 6.00 Build 0)  -->
<svg version="1.1" id="Layer_1" xmlns="http://www.w3.org/2000/svg" xmlns:xlink="http://www.w3.org/1999/xlink" x="0px" y="0px"
	 viewBox="0 0 108 69" style="enable-background:new 0 0 108 69;" xml:space="preserve">
<style type="text/css">
	.st0{fill-rule:evenodd;clip-rule:evenodd;fill:#0B0B0B;}
</style>
<path class="st0" d="M15,10.6c-7.8,5.8-14.2,10.7-14.2,11C0.9,22.7,4,28,4.7,28c0.4,0,5.4-3.6,11.2-8c5.8-4.4,10.7-8,11-8
	c0.3,0,2.2,3.1,4.4,6.9c2.1,3.8,4.2,7.5,4.6,8.1c0.5,0.9,3.9-1,11.4-6.4c5.8-4.2,10.8-7.6,11-7.6s2.3,3.4,4.6,7.5s4.5,7.5,5,7.5
	s5.9-3.6,12-8.1c6.1-4.5,11.5-7.7,11.9-7.2s2.8,4.3,5.2,8.6l4.5,7.7l3.2-2.7l3.2-2.7l-6.6-11.8C97.7,5.3,94.5,0,94.2,0
	C94,0,88.8,3.6,82.7,8c-6.1,4.4-11.4,8-11.8,8c-0.4,0-2.4-2.8-4.4-6.2c-2-3.4-4-6.9-4.5-7.6c-0.7-1-3.3,0.4-11.4,6.2
	C44.8,12.6,39.8,16,39.5,16c-0.3,0-2.4-3.4-4.6-7.5s-4.5-7.7-4.9-8C29.5,0.3,22.8,4.8,15,10.6 M14.2,50.9L0,61.7l1.9,3.2
	C3,66.6,4.1,68,4.4,68c0.3,0,5.3-3.6,11.2-8c5.8-4.4,10.9-8,11.2-8c0.3,0,2.3,3,4.3,6.8c2.1,3.7,4.1,7.4,4.6,8.1
	c0.7,1.1,3.2-0.3,11.6-6.4c8.3-6,10.9-7.4,11.6-6.4c0.5,0.7,2.5,4.2,4.5,7.7c2.5,4.4,4,6.1,5.1,5.7c0.8-0.3,6.1-3.9,11.8-8.1
	S90.9,52,91.2,52c0.3,0,2.7,3.8,5.3,8.5l4.8,8.5l3.1-2.4c1.7-1.3,2.9-3,2.8-3.6C106.6,60.8,94.7,40,94,40c-0.3,0-5.8,3.8-12.1,8.4
	l-11.5,8.4L66,49.2c-2.4-4.2-4.5-7.8-4.7-8c-0.2-0.2-5.1,3.1-10.9,7.2c-5.8,4.2-10.7,7.6-11,7.6s-2.5-3.6-5-8s-4.9-8-5.3-7.9
	C28.7,40.1,22,45,14.2,50.9"/>
</svg>
