<?xml version="1.0" encoding="utf-8"?>
<!-- Generator: Adobe Illustrator 28.1.0, SVG Export Plug-In . SVG Version: 6.00 Build 0)  -->
<svg version="1.1" id="Layer_1" xmlns="http://www.w3.org/2000/svg" xmlns:xlink="http://www.w3.org/1999/xlink" x="0px" y="0px"
	 viewBox="0 0 102.2 100.5" style="enable-background:new 0 0 102.2 100.5;" xml:space="preserve">
<style type="text/css">
	.st0{fill-rule:evenodd;clip-rule:evenodd;fill:#0B0B0B;}
</style>
<path class="st0" d="M14,0.9C7.8,3.1,5.2,5.6,2.1,12.4C-0.5,18-0.7,27.1,1.6,34.1c1.7,5.1,1.8,5.2,6.2,5.5c4.8,0.4,5,0.2,3.5-5.1
	c-1.4-5-1.5-13.5-0.1-16.8c1.4-3.3,5.8-6.3,9.3-6.3c3.4,0,8.5,3.4,10.9,7.2c6.8,11.1,12.6,39.6,14.5,71l0.6,10.8h4.8H56l0.7-12.8
	c1.2-22.9,5.6-48,10.6-61.6c3.8-10.1,11.6-16.3,17.8-14.1c6.4,2.2,8.7,11,5.8,22.1c-0.7,2.9-1.2,5.4-1,5.5c0.2,0.2,2.2,0.1,4.6-0.2
	c3.9-0.5,4.4-0.9,6-5.1c2.2-5.7,2.3-15.4,0.3-21.1C95.4-1.8,78.2-4.4,66.1,8.2c-5.1,5.3-8.5,13.2-11.5,27
	c-1.4,6.5-2.9,12.1-3.3,12.6c-0.4,0.4-1.9-4.7-3.5-11.5c-4.3-19-9.2-28.2-17.9-33.2C24.5,0,18.8-0.8,14,0.9"/>
</svg>
