<?xml version="1.0" encoding="utf-8"?>
<!-- Generator: Adobe Illustrator 28.1.0, SVG Export Plug-In . SVG Version: 6.00 Build 0)  -->
<svg version="1.1" id="Layer_1" xmlns="http://www.w3.org/2000/svg" xmlns:xlink="http://www.w3.org/1999/xlink" x="0px" y="0px"
	 viewBox="0 0 100.7 105.9" style="enable-background:new 0 0 100.7 105.9;" xml:space="preserve">
<style type="text/css">
	.st0{fill-rule:evenodd;clip-rule:evenodd;fill:#0B0B0B;}
</style>
<path class="st0" d="M24.3,2C21.1,3.9,16,10.8,16,13.2c0,0.7-0.9-1-2-3.7C11.5,3.2,8.9,1,3.9,1C0,1,0,1,0,5c0,2.8,0.4,4,1.4,4
	c0.8,0,2.1,1,3,2.2C5.8,13.1,6,18.3,6,47.7V82h5.6h5.6l-0.7-16.2c-1.2-30,1.6-45.8,9.5-53.3L29,9.6v22.5c0,12.4,0.3,28.7,0.7,36.2
	L30.3,82H35h4.7l0.5-26.2c0.4-20.6,0.8-27.4,2.1-31.5c1.6-5.1,7-13.3,9.2-14c0.8-0.3,1.3,9.9,1.7,33.9c0.4,18.9,1.1,35.9,1.7,37.9
	c2.8,9.9,9.9,14.7,22.9,15.6l8,0.5l0.3,3.8l0.3,3.8l7-6.1c3.8-3.4,7.1-6.6,7.2-7.2c0.1-0.6-3.1-4-7-7.5l-7.2-6.4l-0.3,4
	c-0.3,3.8-0.5,4.1-4,4.6c-8,1.3-15.1-2.4-17.1-8.7c-0.5-1.7-1.2-16.4-1.6-32.6C62.8,8.5,62.6,7.4,58.5,3.3c-2-2-4.3-3.3-5.8-3.3
	c-3,0-9.1,5-11.3,9.3l-1.5,3l-2.3-4.9c-1.4-3-3.3-5.3-5-6.1C29-0.4,28.1-0.3,24.3,2"/>
</svg>
