<?xml version="1.0" encoding="utf-8"?>
<!-- Generator: Adobe Illustrator 28.1.0, SVG Export Plug-In . SVG Version: 6.00 Build 0)  -->
<svg version="1.1" id="Layer_1" xmlns="http://www.w3.org/2000/svg" xmlns:xlink="http://www.w3.org/1999/xlink" x="0px" y="0px"
	 viewBox="0 0 98 100" style="enable-background:new 0 0 98 100;" xml:space="preserve">
<style type="text/css">
	.st0{fill-rule:evenodd;clip-rule:evenodd;fill:#0B0B0B;}
</style>
<path class="st0" d="M0,4.5C0,9,0,9,3.5,9c5.5,0,8.3,2.6,12.6,11.6c2.2,4.7,6,10.6,8.8,13.6l4.9,5.3l-5.3,5.7
	c-6.3,6.8-8.5,12.5-8.5,22C16,85.9,29.9,100,48.5,100c20.2,0,35.2-17.2,32.4-37.3c-1-7.5-3.9-13.3-9.2-18.5L67.4,40l4.8-5.1
	c2.8-3,6.4-8.6,8.7-13.4C85.5,12,88.6,9,94.1,9H98V4.5V0h-4.7c-5.4,0-11.7,3.2-14.9,7.7c-1.1,1.6-4.2,7-6.9,12.1
	c-3.1,6.1-6,10.2-8.3,12c-3.3,2.5-4.2,2.7-14.3,2.8l-10.8,0.1L34,31.3c-2.7-2.3-5.6-6.5-8.5-12.3C18.3,4.7,13,0,4,0H0V4.5 M43,44.9
	c-5.1,1.7-8.9,4.2-12.2,8.1c-15.3,17.8,2.5,43.7,25.3,36.9c11.2-3.4,18.2-16.7,15-28.7c-1.4-5.1-6.9-11.6-12.3-14.3
	C54.3,44.6,46.7,43.7,43,44.9"/>
</svg>
