<?xml version="1.0" encoding="UTF-8"?>
<svg id="Layer_2" data-name="Layer 2" xmlns="http://www.w3.org/2000/svg" viewBox="0 0 177.19 181.94">
  <defs>
    <style>
      .cls-1 {
        fill: #040404;
        fill-rule: evenodd;
        stroke-width: 0px;
      }
    </style>
  </defs>
  <g id="Layer_1-2" data-name="Layer 1">
    <path class="cls-1" d="M7.38,1.88C1.09,5.83-1.86,15.13,1.24,21.26c.61,1.2,29.52,30.65,64.25,65.43l63.14,63.25H25.43l-3.3,2.25c-9.28,6.33-9.34,21.05-.12,27.31l3.59,2.44h65.02s65.02-.02,65.02-.02l5.04-2.35c5.89-2.74,9.77-6.99,13.37-14.63l2.59-5.5.28-66.56.28-66.56-2.28-3.35c-3.54-5.2-7.08-7.31-12.99-7.74-6.47-.46-12.12,2.4-15.24,7.71-1.98,3.37-2.07,5.33-2.56,53.18l-.5,49.68-57.33-58.68C54.78,34.85,27,6.69,24.58,4.55,19.03-.36,12.55-1.37,7.38,1.88"/>
  </g>
</svg>