<?xml version="1.0" encoding="UTF-8"?>
<svg id="Layer_2" data-name="Layer 2" xmlns="http://www.w3.org/2000/svg" viewBox="0 0 181.83 181.63">
  <defs>
    <style>
      .cls-1 {
        fill: #040404;
        fill-rule: evenodd;
        stroke-width: 0px;
      }
    </style>
  </defs>
  <g id="Layer_2-2" data-name="Layer 2">
    <path class="cls-1" d="M21.3,1.88C14.14,4.65,6.77,11.55,3.06,18.99l-3.06,6.12v131.06l2.25,3.33c2.65,3.92,9.01,7.3,13.75,7.3s11.1-3.37,13.75-7.3l2.25-3.33V54.31l63.25,63.17c55.89,55.82,63.69,63.25,67,63.85,11.62,2.1,21.33-7.05,19.31-18.2-.62-3.44-7.41-10.57-64.37-67.6L53.52,31.79h51.29c56.15,0,54.33.18,59.53-5.99,5.25-6.24,4.71-14.88-1.33-21.37l-3.86-4.14L92.82.08C28.52-.12,26.34-.07,21.3,1.88"/>
  </g>
</svg>