<svg xmlns="http://www.w3.org/2000/svg" viewBox="0 0 390.9 790.6" xml:space="preserve"><path d="m390.4 117.1-.5-74.8q0-.7-.3-1.3l-2.1-5.2a56 56 0 0 0-40-34.2c-9.6-2-295.4-2-304.8 0A56 56 0 0 0 3.3 35.7l-2.1 5.2-.3 1.3L.4 117 0 180.3v441.5L.4 680c.5 69.2.5 69.5 2.7 75a56 56 0 0 0 33 32.7l6.1 2.5q.7.3 1.3.3h303.6q.7 0 1.3-.3l6.1-2.5a56 56 0 0 0 33-32.7c2.2-5.5 2.2-5.9 2.7-75l.5-66V189.1zm-19 617.7a43 43 0 0 1-31.5 34.6c-5.4 1.4-22.2 1.5-146 1.3L54 770.3l-5.8-2.3c-11-4.4-20.5-14-25-25l-2.3-5.7-.3-338.5c-.2-226.4.1-340.3.8-344a45 45 0 0 1 33-33.9c2.4-.5 17.3-.9 33-1l28.5-.1 1.2 4.4a20 20 0 0 0 10.7 12.7c3.8 1.7 8.1 1.8 68.5 1.8s64.8-.1 68.5-1.8c5.2-2.3 9.2-7.2 10.7-12.7l1.2-4.4h27.8c32.3 0 38.1.8 47.4 6.9a41 41 0 0 1 18.8 26.7c1.3 5.9 1.5 52.5 1.5 340.9.2 226.7-.1 336.1-.8 340.5"/></svg>
